<svg width="65" height="65" viewBox="0 0 65 65" fill="none" xmlns="http://www.w3.org/2000/svg">
<path d="M58.6426 21.3259V21.3273V43.674C58.6426 48.4279 57.2275 52.162 54.6824 54.7071C52.1373 57.2522 48.4032 58.6673 43.6493 58.6673H21.3293C16.5754 58.6673 12.8414 57.2522 10.2964 54.704C7.75125 52.1557 6.33594 48.4149 6.33594 43.6473V21.3273C6.33594 16.5734 7.75103 12.8393 10.2962 10.2942C12.8413 7.74908 16.5754 6.33398 21.3293 6.33398H43.6759C48.4299 6.33398 52.1638 7.74912 54.7055 10.294C57.2471 12.8387 58.6557 16.5724 58.6426 21.3259ZM35.0026 43.1673V35.0007H43.1693C44.5387 35.0007 45.6693 33.8701 45.6693 32.5007C45.6693 31.1312 44.5387 30.0007 43.1693 30.0007H35.0026V21.834C35.0026 20.4645 33.8721 19.334 32.5026 19.334C31.1331 19.334 30.0026 20.4645 30.0026 21.834V30.0007H21.8359C20.4665 30.0007 19.3359 31.1312 19.3359 32.5007C19.3359 33.8701 20.4665 35.0007 21.8359 35.0007H30.0026V43.1673C30.0026 44.5368 31.1331 45.6673 32.5026 45.6673C33.8721 45.6673 35.0026 44.5368 35.0026 43.1673Z" fill="#559CFF" stroke="#559CFF"/>
</svg>
