<svg width="72" height="72" viewBox="0 0 72 72" fill="none" xmlns="http://www.w3.org/2000/svg">
<path d="M48.2135 6.45117H23.5516C12.8393 6.45117 6.45312 12.8374 6.45312 23.5497V48.1821C6.45312 58.9238 12.8393 65.31 23.5516 65.31H48.1841C58.8964 65.31 65.2825 58.9239 65.2825 48.2115V23.5497C65.312 12.8374 58.9258 6.45117 48.2135 6.45117ZM53.5402 38.0878H38.0898V53.5383C38.0898 54.7449 37.0892 55.7455 35.8826 55.7455C34.6759 55.7455 33.6753 54.7449 33.6753 53.5383V38.0878H18.2249C17.0183 38.0878 16.0177 37.0872 16.0177 35.8806C16.0177 34.674 17.0183 33.6734 18.2249 33.6734H33.6753V18.2229C33.6753 17.0163 34.6759 16.0157 35.8826 16.0157C37.0892 16.0157 38.0898 17.0163 38.0898 18.2229V33.6734H53.5402C54.7468 33.6734 55.7474 34.674 55.7474 35.8806C55.7474 37.0872 54.7468 38.0878 53.5402 38.0878Z" fill="#006AFF"/>
</svg>
