<svg width="120" height="120" viewBox="0 0 120 120" fill="none" xmlns="http://www.w3.org/2000/svg">
<rect width="120" height="120" rx="60" fill="#EEF5FF"/>
<path d="M80.2758 44.4899C80.0192 44.4533 79.7625 44.4533 79.5058 44.4899C73.8225 44.3066 69.3125 39.6499 69.3125 33.9299C69.3125 28.0999 74.0425 23.3333 79.9092 23.3333C85.7392 23.3333 90.5058 28.0633 90.5058 33.9299C90.4692 39.6499 85.9592 44.3066 80.2758 44.4899Z" fill="#559CFF"/>
<path d="M92.2305 69.9C88.1239 72.65 82.3672 73.6767 77.0505 72.98C78.4439 69.9733 79.1772 66.6367 79.2139 63.1167C79.2139 59.45 78.4072 55.9667 76.8672 52.9233C82.2939 52.19 88.0505 53.2167 92.1939 55.9667C97.9872 59.78 97.9872 66.05 92.2305 69.9Z" fill="#559CFF"/>
<path d="M39.6152 44.4899C39.8719 44.4533 40.1285 44.4533 40.3852 44.4899C46.0685 44.3066 50.5785 39.6499 50.5785 33.9299C50.5785 28.0633 45.8485 23.3333 39.9819 23.3333C34.1519 23.3333 29.4219 28.0633 29.4219 33.9299C29.4219 39.6499 33.9319 44.3066 39.6152 44.4899Z" fill="#559CFF"/>
<path d="M40.0142 63.1166C40.0142 66.6733 40.7842 70.0466 42.1775 73.09C37.0075 73.64 31.6175 72.54 27.6575 69.9366C21.8642 66.0866 21.8642 59.8166 27.6575 55.9666C31.5808 53.3266 37.1175 52.2633 42.3242 52.85C40.8208 55.93 40.0142 59.4133 40.0142 63.1166Z" fill="#559CFF"/>
<path d="M60.4416 74.19C60.1482 74.1533 59.8182 74.1533 59.4882 74.19C52.7416 73.97 47.3516 68.4333 47.3516 61.6133C47.3882 54.6467 52.9982 49 60.0016 49C66.9682 49 72.6149 54.6467 72.6149 61.6133C72.5782 68.4333 67.2249 73.97 60.4416 74.19Z" fill="#559CFF"/>
<path d="M48.5197 81.7799C42.983 85.4833 42.983 91.5699 48.5197 95.2366C54.8264 99.4533 65.1664 99.4533 71.473 95.2366C77.0097 91.5333 77.0097 85.4466 71.473 81.7799C65.203 77.5633 54.863 77.5633 48.5197 81.7799Z" fill="#559CFF"/>
</svg>
