<svg width="16" height="16" viewBox="0 0 16 16" fill="none" xmlns="http://www.w3.org/2000/svg">
<mask id="path-1-inside-1_4920_66970" fill="white">
<path d="M7.99904 11.2004C7.53237 11.2004 7.0657 11.0204 6.71237 10.6671L2.3657 6.32042C2.17237 6.12708 2.17237 5.80708 2.3657 5.61375C2.55904 5.42042 2.87904 5.42042 3.07237 5.61375L7.41904 9.96042C7.73904 10.2804 8.25904 10.2804 8.57904 9.96042L12.9257 5.61375C13.119 5.42042 13.439 5.42042 13.6324 5.61375C13.8257 5.80708 13.8257 6.12708 13.6324 6.32042L9.2857 10.6671C8.93237 11.0204 8.4657 11.2004 7.99904 11.2004Z"/>
</mask>
<path d="M7.99904 11.2004C7.53237 11.2004 7.0657 11.0204 6.71237 10.6671L2.3657 6.32042C2.17237 6.12708 2.17237 5.80708 2.3657 5.61375C2.55904 5.42042 2.87904 5.42042 3.07237 5.61375L7.41904 9.96042C7.73904 10.2804 8.25904 10.2804 8.57904 9.96042L12.9257 5.61375C13.119 5.42042 13.439 5.42042 13.6324 5.61375C13.8257 5.80708 13.8257 6.12708 13.6324 6.32042L9.2857 10.6671C8.93237 11.0204 8.4657 11.2004 7.99904 11.2004Z" fill="#292D32"/>
<path d="M6.71237 10.6671L6.00526 11.3742L6.71237 10.6671ZM2.3657 6.32042L3.07281 5.61331V5.61331L2.3657 6.32042ZM3.07237 5.61375L2.36526 6.32086L3.07237 5.61375ZM7.41904 9.96042L8.12614 9.25331L7.41904 9.96042ZM8.57904 9.96042L9.28614 10.6675L8.57904 9.96042ZM12.9257 5.61375L12.2186 4.90664V4.90664L12.9257 5.61375ZM13.6324 6.32042L12.9253 5.61331V5.61331L13.6324 6.32042ZM9.2857 10.6671L9.99281 11.3742L9.2857 10.6671ZM7.99904 10.2004C7.78841 10.2004 7.57889 10.1194 7.41948 9.95998L6.00526 11.3742C6.55252 11.9214 7.27633 12.2004 7.99904 12.2004V10.2004ZM7.41948 9.95998L3.07281 5.61331L1.6586 7.02752L6.00526 11.3742L7.41948 9.95998ZM3.07281 5.61331C3.27 5.8105 3.27 6.12367 3.07281 6.32086L1.6586 4.90664C1.07474 5.4905 1.07474 6.44367 1.6586 7.02752L3.07281 5.61331ZM3.07281 6.32086C2.87562 6.51805 2.56245 6.51805 2.36526 6.32086L3.77948 4.90664C3.19562 4.32279 2.24245 4.32279 1.6586 4.90664L3.07281 6.32086ZM2.36526 6.32086L6.71193 10.6675L8.12614 9.25331L3.77948 4.90664L2.36526 6.32086ZM6.71193 10.6675C7.42245 11.378 8.57562 11.378 9.28614 10.6675L7.87193 9.25331C7.94245 9.18279 8.05562 9.18279 8.12614 9.25331L6.71193 10.6675ZM9.28614 10.6675L13.6328 6.32086L12.2186 4.90664L7.87193 9.25331L9.28614 10.6675ZM13.6328 6.32086C13.4356 6.51805 13.1225 6.51805 12.9253 6.32086L14.3395 4.90664C13.7556 4.32279 12.8025 4.32279 12.2186 4.90664L13.6328 6.32086ZM12.9253 6.32086C12.7281 6.12367 12.7281 5.8105 12.9253 5.61331L14.3395 7.02752C14.9233 6.44367 14.9233 5.4905 14.3395 4.90664L12.9253 6.32086ZM12.9253 5.61331L8.5786 9.95998L9.99281 11.3742L14.3395 7.02752L12.9253 5.61331ZM8.5786 9.95998C8.41919 10.1194 8.20966 10.2004 7.99904 10.2004V12.2004C8.72175 12.2004 9.44555 11.9214 9.99281 11.3742L8.5786 9.95998Z" fill="#006AFF" mask="url(#path-1-inside-1_4920_66970)"/>
</svg>
