<svg width="18" height="12" viewBox="0 0 18 12" fill="none" xmlns="http://www.w3.org/2000/svg">
<path d="M16.3297 5.01261V2.64961C16.3297 1.24711 15.1822 0.0996094 13.7797 0.0996094H10.3797C9.72519 0.0996094 9.13019 0.35461 8.67969 0.76261C8.22919 0.35461 7.63419 0.0996094 6.97969 0.0996094H3.57969C2.17719 0.0996094 1.02969 1.24711 1.02969 2.64961V5.01261C0.511187 5.48011 0.179688 6.15161 0.179688 6.89961V11.9996H1.87969V10.2996H15.4797V11.9996H17.1797V6.89961C17.1797 6.15161 16.8482 5.48011 16.3297 5.01261ZM10.3797 1.79961H13.7797C14.2472 1.79961 14.6297 2.18211 14.6297 2.64961V4.34961H9.52969V2.64961C9.52969 2.18211 9.91219 1.79961 10.3797 1.79961ZM2.72969 2.64961C2.72969 2.18211 3.11219 1.79961 3.57969 1.79961H6.97969C7.44719 1.79961 7.82969 2.18211 7.82969 2.64961V4.34961H2.72969V2.64961Z" fill="#111111"/>
</svg>
