<svg width="16" height="16" viewBox="0 0 16 16" fill="none" xmlns="http://www.w3.org/2000/svg">
<mask id="path-1-inside-1_4856_9779" fill="white">
<path d="M14.6654 14.667H1.33203C1.0587 14.667 0.832031 14.4403 0.832031 14.167C0.832031 13.8937 1.0587 13.667 1.33203 13.667H14.6654C14.9387 13.667 15.1654 13.8937 15.1654 14.167C15.1654 14.4403 14.9387 14.667 14.6654 14.667Z"/>
</mask>
<path d="M14.6654 14.667H1.33203C1.0587 14.667 0.832031 14.4403 0.832031 14.167C0.832031 13.8937 1.0587 13.667 1.33203 13.667H14.6654C14.9387 13.667 15.1654 13.8937 15.1654 14.167C15.1654 14.4403 14.9387 14.667 14.6654 14.667Z" fill="#4E4E4E"/>
<path d="M14.6654 13.667H1.33203V15.667H14.6654V13.667ZM1.33203 13.667C1.61098 13.667 1.83203 13.888 1.83203 14.167H-0.167969C-0.167969 14.9926 0.506413 15.667 1.33203 15.667V13.667ZM1.83203 14.167C1.83203 14.4459 1.61098 14.667 1.33203 14.667V12.667C0.506413 12.667 -0.167969 13.3414 -0.167969 14.167H1.83203ZM1.33203 14.667H14.6654V12.667H1.33203V14.667ZM14.6654 14.667C14.3864 14.667 14.1654 14.4459 14.1654 14.167H16.1654C16.1654 13.3414 15.491 12.667 14.6654 12.667V14.667ZM14.1654 14.167C14.1654 13.888 14.3864 13.667 14.6654 13.667V15.667C15.491 15.667 16.1654 14.9926 16.1654 14.167H14.1654Z" fill="#4E4E4E" mask="url(#path-1-inside-1_4856_9779)"/>
<path d="M6.5 2.66634V14.6663H9.5V2.66634C9.5 1.93301 9.2 1.33301 8.3 1.33301H7.7C6.8 1.33301 6.5 1.93301 6.5 2.66634Z" fill="#4E4E4E"/>
<path d="M2 6.66634V14.6663H4.66667V6.66634C4.66667 5.93301 4.4 5.33301 3.6 5.33301H3.06667C2.26667 5.33301 2 5.93301 2 6.66634Z" fill="#292D32"/>
<path d="M11.332 10.0003V14.667H13.9987V10.0003C13.9987 9.26699 13.732 8.66699 12.932 8.66699H12.3987C11.5987 8.66699 11.332 9.26699 11.332 10.0003Z" fill="#292D32"/>
</svg>
