<svg width="16" height="16" viewBox="0 0 16 16" fill="none" xmlns="http://www.w3.org/2000/svg">
<path d="M14.6663 14.166H1.33301C1.05967 14.166 0.833008 14.3927 0.833008 14.666C0.833008 14.9393 1.05967 15.166 1.33301 15.166H14.6663C14.9397 15.166 15.1663 14.9393 15.1663 14.666C15.1663 14.3927 14.9397 14.166 14.6663 14.166Z" fill="#202020"/>
<path d="M11.3333 1.33398H4.66667C2.66667 1.33398 2 2.52732 2 4.00065V14.6673H14V4.00065C14 2.52732 13.3333 1.33398 11.3333 1.33398ZM6.66667 11.5007H4.66667C4.39333 11.5007 4.16667 11.274 4.16667 11.0007C4.16667 10.7273 4.39333 10.5007 4.66667 10.5007H6.66667C6.94 10.5007 7.16667 10.7273 7.16667 11.0007C7.16667 11.274 6.94 11.5007 6.66667 11.5007ZM6.66667 8.50065H4.66667C4.39333 8.50065 4.16667 8.27398 4.16667 8.00065C4.16667 7.72732 4.39333 7.50065 4.66667 7.50065H6.66667C6.94 7.50065 7.16667 7.72732 7.16667 8.00065C7.16667 8.27398 6.94 8.50065 6.66667 8.50065ZM6.66667 5.50065H4.66667C4.39333 5.50065 4.16667 5.27398 4.16667 5.00065C4.16667 4.72732 4.39333 4.50065 4.66667 4.50065H6.66667C6.94 4.50065 7.16667 4.72732 7.16667 5.00065C7.16667 5.27398 6.94 5.50065 6.66667 5.50065ZM11.3333 11.5007H9.33333C9.06 11.5007 8.83333 11.274 8.83333 11.0007C8.83333 10.7273 9.06 10.5007 9.33333 10.5007H11.3333C11.6067 10.5007 11.8333 10.7273 11.8333 11.0007C11.8333 11.274 11.6067 11.5007 11.3333 11.5007ZM11.3333 8.50065H9.33333C9.06 8.50065 8.83333 8.27398 8.83333 8.00065C8.83333 7.72732 9.06 7.50065 9.33333 7.50065H11.3333C11.6067 7.50065 11.8333 7.72732 11.8333 8.00065C11.8333 8.27398 11.6067 8.50065 11.3333 8.50065ZM11.3333 5.50065H9.33333C9.06 5.50065 8.83333 5.27398 8.83333 5.00065C8.83333 4.72732 9.06 4.50065 9.33333 4.50065H11.3333C11.6067 4.50065 11.8333 4.72732 11.8333 5.00065C11.8333 5.27398 11.6067 5.50065 11.3333 5.50065Z" fill="#202020"/>
</svg>
