<svg width="16" height="17" viewBox="0 0 16 17" fill="none" xmlns="http://www.w3.org/2000/svg">
<path d="M14 4.48763C11.78 4.26763 9.54667 4.1543 7.32 4.1543C6 4.1543 4.68 4.22096 3.36 4.3543L2 4.48763" stroke="#4E4E4E" stroke-width="1.5" stroke-linecap="round" stroke-linejoin="round"/>
<path d="M5.66797 3.81398L5.81464 2.94065C5.9213 2.30732 6.0013 1.83398 7.12797 1.83398H8.87464C10.0013 1.83398 10.088 2.33398 10.188 2.94732L10.3346 3.81398" stroke="#292D32" stroke-width="1.5" stroke-linecap="round" stroke-linejoin="round"/>
<path d="M12.5669 6.59375L12.1336 13.3071C12.0603 14.3537 12.0003 15.1671 10.1403 15.1671H5.86026C4.00026 15.1671 3.94026 14.3537 3.86693 13.3071L3.43359 6.59375" stroke="#292D32" stroke-width="1.5" stroke-linecap="round" stroke-linejoin="round"/>
<path d="M6.88672 11.5H9.10672" stroke="#292D32" stroke-width="1.5" stroke-linecap="round" stroke-linejoin="round"/>
<path d="M6.33203 8.83398H9.66536" stroke="#292D32" stroke-width="1.5" stroke-linecap="round" stroke-linejoin="round"/>
</svg>
