<svg width="10" height="10" viewBox="0 0 10 10" fill="none" xmlns="http://www.w3.org/2000/svg">
<path d="M5 1.92969C6.19517 1.92981 7.38151 2.58778 8.26074 3.82617L8.43164 4.08105V4.08203C8.57774 4.31145 8.66602 4.64253 8.66602 5C8.66602 5.31295 8.59859 5.60437 8.48438 5.82422L8.43262 5.91406V5.91504C7.98514 6.61711 7.44565 7.15637 6.85938 7.52051C6.27303 7.88048 5.64153 8.06732 5 8.06738C3.80426 8.06738 2.61808 7.41232 1.73926 6.17188L1.56738 5.91602V5.91504C1.42115 5.68542 1.33301 5.35469 1.33301 4.99805C1.33306 4.68584 1.40069 4.39381 1.51562 4.17188L1.56738 4.08203C2.01541 3.37909 2.55546 2.83975 3.14258 2.47559L3.1416 2.47461C3.72755 2.11528 4.359 1.92969 5 1.92969ZM5 2.81738C3.78972 2.81738 2.81641 3.79647 2.81641 5.00098C2.81665 6.20527 3.78987 7.18359 5 7.18359C6.20998 7.18342 7.18237 6.20516 7.18262 5.00098C7.18262 3.79658 6.21013 2.81756 5 2.81738Z" fill="#4E4E4E" stroke="#4E4E4E"/>
<path d="M5 4.30859C5.37794 4.30859 5.69126 4.62209 5.69141 5C5.69141 5.37575 5.3803 5.6875 5 5.6875C4.62198 5.6875 4.3125 5.37802 4.3125 5C4.31264 4.61679 4.6232 4.30859 5 4.30859Z" fill="#4E4E4E" stroke="#4E4E4E"/>
</svg>
