<svg width="32" height="32" viewBox="0 0 32 32" fill="none" xmlns="http://www.w3.org/2000/svg">
<path d="M23.3911 9.85916C23.2835 9.84738 23.1755 9.84738 23.0679 9.85916C21.2897 9.782 19.8828 8.31871 19.8828 6.52033C19.8828 4.67534 21.3801 3.16699 23.2361 3.16699C25.0806 3.16699 26.5886 4.66342 26.5895 6.51875C26.5771 8.31943 25.1682 9.78203 23.3911 9.85916Z" fill="#006AFF" stroke="#006AFF"/>
<path d="M27.7195 19.5996C26.2261 20.5996 24.1328 20.9729 22.1995 20.7196C22.7061 19.6262 22.9728 18.4129 22.9861 17.1329C22.9861 15.7996 22.6928 14.5329 22.1328 13.4262C24.1061 13.1596 26.1995 13.5329 27.7061 14.5329C29.8128 15.9196 29.8128 18.1996 27.7195 19.5996Z" fill="#006AFF"/>
<path d="M8.89109 9.85916C8.78346 9.84738 8.6755 9.84738 8.56787 9.85916C6.78967 9.782 5.38281 8.31871 5.38281 6.52033C5.38281 4.662 6.88008 3.16699 8.72281 3.16699C10.58 3.16699 12.0761 4.66313 12.0761 6.52033C12.0761 8.31871 10.6693 9.782 8.89109 9.85916Z" fill="#006AFF" stroke="#006AFF"/>
<path d="M4.51299 14.9496L4.513 14.9496L4.51539 14.948C5.65855 14.1787 7.24472 13.796 8.82936 13.8473C8.43636 14.8638 8.22958 15.9725 8.22958 17.1331C8.22958 18.2473 8.42639 19.3158 8.78973 20.3072C7.22512 20.3483 5.67292 19.9589 4.51195 19.196C3.56255 18.5647 3.15625 17.7861 3.15625 17.0731C3.15625 16.3599 3.56285 15.581 4.51299 14.9496Z" fill="#006AFF" stroke="#006AFF"/>
<path d="M16.1584 21.16C16.0518 21.1467 15.9318 21.1467 15.8118 21.16C13.3584 21.08 11.3984 19.0667 11.3984 16.5867C11.4118 14.0533 13.4518 12 15.9984 12C18.5318 12 20.5851 14.0533 20.5851 16.5867C20.5718 19.0667 18.6251 21.08 16.1584 21.16Z" fill="#006AFF"/>
<path d="M11.8303 23.9195C9.81698 25.2662 9.81698 27.4795 11.8303 28.8129C14.1236 30.3462 17.8836 30.3462 20.177 28.8129C22.1903 27.4662 22.1903 25.2529 20.177 23.9195C17.897 22.3862 14.137 22.3862 11.8303 23.9195Z" fill="#006AFF"/>
</svg>
