<svg width="32" height="33" viewBox="0 0 32 33" fill="none" xmlns="http://www.w3.org/2000/svg">
<path d="M28.8193 10.9123V10.9137V22.087C28.8193 24.4142 28.1276 26.2116 26.9125 27.4268C25.6973 28.6419 23.8999 29.3337 21.5727 29.3337H10.4127C8.08546 29.3337 6.28819 28.6419 5.07312 27.4253C3.85799 26.2087 3.16602 24.4079 3.16602 22.0737V10.9137C3.16602 8.58643 3.85778 6.789 5.0729 5.57388C6.28803 4.35875 8.08545 3.66699 10.4127 3.66699H21.586C23.9133 3.66699 25.7106 4.3588 26.9239 5.57366C28.1371 6.78841 28.8257 8.58537 28.8193 10.9123ZM17.4993 21.8337V18.0003H21.3327C22.1555 18.0003 22.8327 17.3231 22.8327 16.5003C22.8327 15.6775 22.1555 15.0003 21.3327 15.0003H17.4993V11.167C17.4993 10.3442 16.8222 9.66699 15.9993 9.66699C15.1765 9.66699 14.4993 10.3442 14.4993 11.167V15.0003H10.666C9.84321 15.0003 9.16602 15.6775 9.16602 16.5003C9.16602 17.3231 9.84321 18.0003 10.666 18.0003H14.4993V21.8337C14.4993 22.6565 15.1765 23.3337 15.9993 23.3337C16.8222 23.3337 17.4993 22.6565 17.4993 21.8337Z" fill="#006AFF" stroke="#006AFF"/>
</svg>
