<svg width="14" height="15" viewBox="0 0 14 15" fill="none" xmlns="http://www.w3.org/2000/svg">
<path d="M12.7937 2.18066V3.66064C12.7937 4.20064 12.4537 4.87399 12.1204 5.21399L10.947 6.24731C10.727 6.19398 10.4937 6.16732 10.2537 6.16732C8.50703 6.16732 7.08703 7.58732 7.08703 9.33398C7.08703 9.92732 7.2537 10.4873 7.54703 10.9673C7.7937 11.3807 8.1337 11.734 8.54703 11.9873V12.214C8.54703 12.6207 8.28036 13.1606 7.94036 13.3606L7.00036 13.9673C6.12703 14.5073 4.9137 13.9006 4.9137 12.8206V9.25399C4.9137 8.78065 4.64036 8.17399 4.3737 7.84066L1.8137 5.1473C1.48036 4.8073 1.20703 4.20066 1.20703 3.80066V2.24731C1.20703 1.44065 1.8137 0.833984 2.5537 0.833984H11.447C12.187 0.833984 12.7937 1.44066 12.7937 2.18066Z" stroke="#006AFF" stroke-width="1.5" stroke-miterlimit="10" stroke-linecap="round" stroke-linejoin="round"/>
</svg>
