<svg width="24" height="24" viewBox="0 0 24 24" fill="none" xmlns="http://www.w3.org/2000/svg">
<path d="M10.0933 4H9.12C6.68386 4 4.7 5.98386 4.7 8.42V17.5H4.15C3.23614 17.5 2.5 16.7639 2.5 15.85V4.15C2.5 3.23614 3.23614 2.5 4.15 2.5H8.45C9.31328 2.5 10.018 3.15692 10.0933 4Z" fill="#006AFF" stroke="#006AFF"/>
<path d="M21.5004 4.15V15.85C21.5004 16.7639 20.7642 17.5 19.8504 17.5H19.3704V8.42C19.3704 5.98386 17.3865 4 14.9504 4H13.9071C13.9824 3.15692 14.6871 2.5 15.5504 2.5H19.8504C20.7642 2.5 21.5004 3.23614 21.5004 4.15Z" fill="#006AFF" stroke="#006AFF"/>
<path d="M14.9492 6H9.11922C7.77922 6 6.69922 7.08 6.69922 8.42V19.58C6.69922 20.92 7.77922 22 9.11922 22H10.7492C11.0292 22 11.2492 21.78 11.2492 21.5V19C11.2492 18.59 11.5892 18.25 11.9992 18.25C12.4092 18.25 12.7492 18.59 12.7492 19V21.5C12.7492 21.78 12.9692 22 13.2492 22H14.9592C16.2892 22 17.3692 20.92 17.3692 19.59V8.42C17.3692 7.08 16.2892 6 14.9492 6ZM13.9992 14.75H9.99922C9.58922 14.75 9.24922 14.41 9.24922 14C9.24922 13.59 9.58922 13.25 9.99922 13.25H13.9992C14.4092 13.25 14.7492 13.59 14.7492 14C14.7492 14.41 14.4092 14.75 13.9992 14.75ZM13.9992 11.75H9.99922C9.58922 11.75 9.24922 11.41 9.24922 11C9.24922 10.59 9.58922 10.25 9.99922 10.25H13.9992C14.4092 10.25 14.7492 10.59 14.7492 11C14.7492 11.41 14.4092 11.75 13.9992 11.75Z" fill="#006AFF"/>
</svg>
