<svg width="16" height="17" viewBox="0 0 16 17" fill="none" xmlns="http://www.w3.org/2000/svg">
<path d="M2.03627 3.94816L2.03628 3.94816L2.03731 3.94552C2.16874 3.61149 2.37864 3.29884 2.68181 3.01282L2.68189 3.01291L2.68946 3.00545C3.04065 2.65974 3.38661 2.52246 3.72536 2.52246C3.84202 2.52246 3.95412 2.54768 4.049 2.59322L4.04897 2.59327L4.05584 2.59644C4.15489 2.64216 4.23591 2.70647 4.30094 2.8004L4.30091 2.80042L4.30424 2.80511L5.85091 4.98511L5.8509 4.98512L5.85293 4.98795C5.95482 5.12945 6.02034 5.24849 6.06259 5.35178L6.06253 5.3518L6.06579 5.35942C6.1063 5.45394 6.1187 5.5263 6.1187 5.56913C6.1187 5.62848 6.10212 5.69948 6.0516 5.78249L6.04739 5.78939L6.04342 5.79643C5.98467 5.90036 5.88916 6.0249 5.75181 6.16224L5.75174 6.16217L5.74504 6.16915L5.24107 6.693C5.06909 6.86714 4.99203 7.08299 4.99203 7.30913C4.99203 7.40983 5.00542 7.49756 5.02696 7.58373L5.03387 7.61136L5.04387 7.63803C5.05693 7.67286 5.07005 7.7038 5.07836 7.72339C5.07919 7.72536 5.07998 7.72721 5.08071 7.72895C5.08938 7.74942 5.09108 7.7541 5.09109 7.7541L5.1051 7.79614L5.12642 7.83522C5.27004 8.09854 5.50149 8.41498 5.80367 8.7721L5.80365 8.77212L5.80728 8.77632C6.11237 9.12886 6.43952 9.49018 6.79513 9.85263L6.79511 9.85265L6.79848 9.85601C6.83615 9.89368 6.87487 9.93057 6.90861 9.96269L6.91054 9.96453C6.94636 9.99864 6.97687 10.0277 7.00514 10.056L7.00512 10.056L7.00965 10.0605C7.07909 10.1282 7.07923 10.2348 7.01181 10.3022L5.77848 11.5356C5.71626 11.5978 5.61472 11.6048 5.53958 11.5363C5.50087 11.4977 5.46286 11.4614 5.429 11.4291L5.42727 11.4275C5.39033 11.3922 5.35809 11.3614 5.32649 11.3298C4.65756 10.6543 4.05459 9.94745 3.51708 9.2093C2.98901 8.47501 2.56943 7.74839 2.26661 7.0361C1.97372 6.32496 1.83203 5.66407 1.83203 5.04913C1.83203 4.65505 1.90146 4.28518 2.03627 3.94816Z" fill="white" stroke="white"/>
<path d="M14.6451 12.9098C14.6451 13.0965 14.6118 13.2898 14.5451 13.4765C14.5251 13.5298 14.5051 13.5831 14.4784 13.6365C14.3651 13.8765 14.2184 14.1031 14.0251 14.3165C13.6984 14.6765 13.3384 14.9365 12.9318 15.1031C12.9251 15.1031 12.9184 15.1098 12.9118 15.1098C12.5184 15.2698 12.0918 15.3565 11.6318 15.3565C10.9518 15.3565 10.2251 15.1965 9.45844 14.8698C8.69177 14.5431 7.9251 14.1031 7.1651 13.5498C6.9051 13.3565 6.6451 13.1631 6.39844 12.9565L8.57844 10.7765C8.7651 10.9165 8.93177 11.0231 9.07177 11.0965C9.1051 11.1098 9.1451 11.1298 9.19177 11.1498C9.2451 11.1698 9.29844 11.1765 9.35844 11.1765C9.47177 11.1765 9.55844 11.1365 9.63177 11.0631L10.1384 10.5631C10.3051 10.3965 10.4651 10.2698 10.6184 10.1898C10.7718 10.0965 10.9251 10.0498 11.0918 10.0498C11.2184 10.0498 11.3518 10.0765 11.4984 10.1365C11.6451 10.1965 11.7984 10.2831 11.9651 10.3965L14.1718 11.9631C14.3451 12.0831 14.4651 12.2231 14.5384 12.3898C14.6051 12.5565 14.6451 12.7231 14.6451 12.9098Z" fill="white"/>
</svg>
