<svg width="16" height="17" viewBox="0 0 16 17" fill="none" xmlns="http://www.w3.org/2000/svg">
<path d="M10.583 4.12905L10.5829 4.12908L10.587 4.13684C10.8572 4.65806 11.399 5.00001 11.9975 5.00001C13.1566 5.00001 14.0731 5.97727 13.9986 7.12767L13.9985 7.1286L13.6518 12.6352C13.6518 12.6352 13.6518 12.6352 13.6518 12.6353C13.6131 13.2485 13.4333 13.748 13.1132 14.0901C12.8028 14.4219 12.3033 14.6667 11.4908 14.6667H4.50417C3.69152 14.6667 3.1902 14.4217 2.87894 14.0897C2.55849 13.7479 2.37895 13.2491 2.34333 12.6376L2.34319 12.6353L1.99652 7.1286L1.99646 7.12767C1.9219 5.97727 2.83837 5.00001 3.99751 5.00001C4.59599 5.00001 5.13779 4.65806 5.40805 4.13684L5.40812 4.13687L5.412 4.12905L5.89113 3.16414C5.9942 2.96112 6.19732 2.74799 6.46167 2.58422C6.72663 2.42006 7.00812 2.33334 7.23751 2.33334H8.76417C8.98943 2.33334 9.26905 2.41953 9.53369 2.58391C9.79757 2.74782 10.0008 2.9611 10.1039 3.16422C10.1042 3.16467 10.1044 3.16512 10.1046 3.16558L10.583 4.12905ZM8.99751 4.83334H6.99751C6.44803 4.83334 5.99751 5.28387 5.99751 5.83334C5.99751 6.38282 6.44803 6.83334 6.99751 6.83334H8.99751C9.54698 6.83334 9.99751 6.38282 9.99751 5.83334C9.99751 5.28387 9.54698 4.83334 8.99751 4.83334ZM5.24417 10.3267C5.24417 11.8504 6.48233 13.08 7.99751 13.08C9.51269 13.08 10.7508 11.8504 10.7508 10.3267C10.7508 8.80387 9.52032 7.57334 7.99751 7.57334C6.4747 7.57334 5.24417 8.80387 5.24417 10.3267Z" fill="#006AFF" stroke="#006AFF"/>
</svg>
