<svg width="40" height="40" viewBox="0 0 40 40" fill="none" xmlns="http://www.w3.org/2000/svg">
<rect width="40" height="40" rx="8" fill="#EEF5FF" fill-opacity="0.6"/>
<path d="M26.0002 14C25.3902 14 24.8302 13.65 24.5502 13.11L23.8302 11.66C23.3702 10.75 22.1702 10 21.1502 10H18.8602C17.8302 10 16.6302 10.75 16.1702 11.66L15.4502 13.11C15.1702 13.65 14.6102 14 14.0002 14C11.8302 14 10.1102 15.83 10.2502 17.99L10.7702 26.25C10.8902 28.31 12.0002 30 14.7602 30H25.2402C28.0002 30 29.1002 28.31 29.2302 26.25L29.7502 17.99C29.8902 15.83 28.1702 14 26.0002 14ZM18.5002 15.25H21.5002C21.9102 15.25 22.2502 15.59 22.2502 16C22.2502 16.41 21.9102 16.75 21.5002 16.75H18.5002C18.0902 16.75 17.7502 16.41 17.7502 16C17.7502 15.59 18.0902 15.25 18.5002 15.25ZM20.0002 26.12C18.1402 26.12 16.6202 24.61 16.6202 22.74C16.6202 20.87 18.1302 19.36 20.0002 19.36C21.8702 19.36 23.3802 20.87 23.3802 22.74C23.3802 24.61 21.8602 26.12 20.0002 26.12Z" fill="#006AFF"/>
</svg>
