<svg width="16" height="16" viewBox="0 0 16 16" fill="none" xmlns="http://www.w3.org/2000/svg">
<path d="M10.5869 3.62969L10.5868 3.62972L10.5909 3.63748C10.8611 4.1587 11.4029 4.50065 12.0014 4.50065C13.1606 4.50065 14.077 5.47791 14.0025 6.62831L14.0024 6.62924L13.6557 12.1358C13.6557 12.1359 13.6557 12.1359 13.6557 12.1359C13.617 12.7492 13.4372 13.2487 13.1171 13.5907C12.8067 13.9225 12.3072 14.1673 11.4947 14.1673H4.50808C3.69542 14.1673 3.19411 13.9224 2.88285 13.5903C2.56239 13.2485 2.38286 12.7497 2.34724 12.1382L2.34709 12.1359L2.00043 6.62924L2.00037 6.62831C1.9258 5.47791 2.84228 4.50065 4.00141 4.50065C4.5999 4.50065 5.14169 4.1587 5.41196 3.63748L5.41203 3.63751L5.41591 3.62969L5.89504 2.66478C5.99811 2.46177 6.20122 2.24863 6.46558 2.08486C6.73054 1.9207 7.01203 1.83398 7.24141 1.83398H8.76808C8.99333 1.83398 9.27295 1.92017 9.5376 2.08455C9.80147 2.24846 10.0047 2.46174 10.1078 2.66486C10.1081 2.66531 10.1083 2.66577 10.1085 2.66622L10.5869 3.62969ZM9.00141 4.33398H7.00141C6.45194 4.33398 6.00141 4.78451 6.00141 5.33398C6.00141 5.88346 6.45194 6.33398 7.00141 6.33398H9.00141C9.55089 6.33398 10.0014 5.88346 10.0014 5.33398C10.0014 4.78451 9.55089 4.33398 9.00141 4.33398ZM5.24808 9.82732C5.24808 11.3511 6.48624 12.5807 8.00141 12.5807C9.51659 12.5807 10.7547 11.3511 10.7547 9.82732C10.7547 8.30451 9.52422 7.07398 8.00141 7.07398C6.4786 7.07398 5.24808 8.30451 5.24808 9.82732Z" fill="#006AFF" stroke="#006AFF"/>
</svg>
