<svg width="32" height="32" viewBox="0 0 32 32" fill="none" xmlns="http://www.w3.org/2000/svg">
<path d="M15.4974 20.9333V21.08C15.4974 21.1772 15.4279 21.2467 15.3307 21.2467H3.33073C3.23354 21.2467 3.16406 21.1772 3.16406 21.08V20.9333C3.16406 19.7562 3.32341 19.2223 3.60628 18.9416C3.89052 18.6594 4.43287 18.5 5.62406 18.5H13.0374C14.2286 18.5 14.7709 18.6594 15.0552 18.9416C15.338 19.2223 15.4974 19.7562 15.4974 20.9333Z" fill="#006AFF" stroke="#006AFF"/>
<path d="M3.16406 23.7467C3.16406 23.6496 3.23354 23.5801 3.33073 23.5801H15.3307C15.4279 23.5801 15.4974 23.6496 15.4974 23.7467V25.0801V26.4001C15.4974 27.5772 15.338 28.1111 15.0552 28.3919C14.7709 28.674 14.2286 28.8334 13.0374 28.8334H5.62406C4.43287 28.8334 3.89052 28.674 3.60628 28.3919C3.32341 28.1111 3.16406 27.5772 3.16406 26.4001V25.0801V23.7467Z" fill="#006AFF" stroke="#006AFF"/>
<path d="M29.3333 20C29.3333 25.16 25.16 29.3333 20 29.3333L21.4 27" fill="#006AFF"/>
<path d="M29.3333 20C29.3333 25.16 25.16 29.3333 20 29.3333L21.4 27" stroke="#006AFF" stroke-width="1.5" stroke-linecap="round" stroke-linejoin="round"/>
<path d="M2.66406 12.0003C2.66406 6.84033 6.8374 2.66699 11.9974 2.66699L10.5974 5.00033" fill="#006AFF"/>
<path d="M2.66406 12.0003C2.66406 6.84033 6.8374 2.66699 11.9974 2.66699L10.5974 5.00033" stroke="#006AFF" stroke-width="1.5" stroke-linecap="round" stroke-linejoin="round"/>
<path d="M24.6641 14.667C27.9778 14.667 30.6641 11.9807 30.6641 8.66699C30.6641 5.35328 27.9778 2.66699 24.6641 2.66699C21.3504 2.66699 18.6641 5.35328 18.6641 8.66699C18.6641 11.9807 21.3504 14.667 24.6641 14.667Z" fill="#006AFF"/>
</svg>
