<svg width="32" height="32" viewBox="0 0 32 32" fill="none" xmlns="http://www.w3.org/2000/svg">
<path d="M28.8307 10.0665C28.8307 10.6704 28.3346 11.1665 27.7307 11.1665H4.26406C3.6602 11.1665 3.16406 10.6704 3.16406 10.0665V10.0532C3.16406 7.27601 5.40687 5.0332 8.18406 5.0332H23.7974C26.5746 5.0332 28.8307 7.28935 28.8307 10.0665Z" fill="#039855" stroke="#039855"/>
<path d="M3.16406 21.947V15.267C3.16406 14.6631 3.6602 14.167 4.26406 14.167H27.7307C28.3346 14.167 28.8307 14.6631 28.8307 15.267V21.9337C28.8307 24.7109 26.5746 26.967 23.7974 26.967H8.18406C5.40687 26.967 3.16406 24.7242 3.16406 21.947ZM7.9974 23.5003H10.6641C11.4869 23.5003 12.1641 22.8231 12.1641 22.0003C12.1641 21.1775 11.4869 20.5003 10.6641 20.5003H7.9974C7.17459 20.5003 6.4974 21.1775 6.4974 22.0003C6.4974 22.8231 7.17459 23.5003 7.9974 23.5003ZM13.9974 23.5003H19.3307C20.1535 23.5003 20.8307 22.8231 20.8307 22.0003C20.8307 21.1775 20.1535 20.5003 19.3307 20.5003H13.9974C13.1746 20.5003 12.4974 21.1775 12.4974 22.0003C12.4974 22.8231 13.1746 23.5003 13.9974 23.5003Z" fill="#039855" stroke="#039855"/>
</svg>
