<svg width="16" height="17" viewBox="0 0 16 17" fill="none" xmlns="http://www.w3.org/2000/svg">
<path d="M10.6654 9.09967V11.8997C10.6654 14.233 9.73203 15.1663 7.3987 15.1663H4.5987C2.26536 15.1663 1.33203 14.233 1.33203 11.8997V9.09967C1.33203 6.76634 2.26536 5.83301 4.5987 5.83301H7.3987C9.73203 5.83301 10.6654 6.76634 10.6654 9.09967Z" stroke="#4E4E4E" stroke-width="1.5" stroke-linecap="round" stroke-linejoin="round"/>
<path d="M14.6654 5.09967V7.89967C14.6654 10.233 13.732 11.1663 11.3987 11.1663H10.6654V9.09967C10.6654 6.76634 9.73203 5.83301 7.3987 5.83301H5.33203V5.09967C5.33203 2.76634 6.26536 1.83301 8.5987 1.83301H11.3987C13.732 1.83301 14.6654 2.76634 14.6654 5.09967Z" stroke="#4E4E4E" stroke-width="1.5" stroke-linecap="round" stroke-linejoin="round"/>
</svg>
