<svg width="40" height="40" viewBox="0 0 40 40" fill="none" xmlns="http://www.w3.org/2000/svg">
<path d="M34.167 16.983H29.3503C25.4003 16.983 22.1837 13.7663 22.1837 9.81634V4.99967C22.1837 4.08301 21.4337 3.33301 20.517 3.33301H13.4503C8.31699 3.33301 4.16699 6.66634 4.16699 12.6163V27.383C4.16699 33.333 8.31699 36.6663 13.4503 36.6663H26.5503C31.6837 36.6663 35.8337 33.333 35.8337 27.383V18.6497C35.8337 17.733 35.0837 16.983 34.167 16.983ZM19.217 22.5497C18.967 22.7997 18.6503 22.9163 18.3337 22.9163C18.017 22.9163 17.7003 22.7997 17.4503 22.5497L16.2503 21.3497V28.333C16.2503 29.0163 15.6837 29.583 15.0003 29.583C14.317 29.583 13.7503 29.0163 13.7503 28.333V21.3497L12.5503 22.5497C12.067 23.033 11.267 23.033 10.7837 22.5497C10.3003 22.0663 10.3003 21.2663 10.7837 20.783L14.117 17.4497C14.2337 17.3497 14.3503 17.2663 14.4837 17.1997C14.517 17.183 14.567 17.1663 14.6003 17.1497C14.7003 17.1163 14.8003 17.0997 14.917 17.083C14.967 17.083 15.0003 17.083 15.0503 17.083C15.1837 17.083 15.317 17.1163 15.4503 17.1663C15.467 17.1663 15.467 17.1663 15.4837 17.1663C15.617 17.2163 15.7503 17.3163 15.8503 17.4163C15.867 17.433 15.8837 17.433 15.8837 17.4497L19.217 20.783C19.7003 21.2663 19.7003 22.0663 19.217 22.5497Z" fill="#4E4E4E"/>
<path d="M29.0501 14.6832C30.6335 14.6998 32.8335 14.6998 34.7168 14.6998C35.6668 14.6998 36.1668 13.5832 35.5001 12.9165C33.1001 10.4998 28.8001 6.14983 26.3335 3.68316C25.6501 2.99983 24.4668 3.46649 24.4668 4.41649V10.2332C24.4668 12.6665 26.5335 14.6832 29.0501 14.6832Z" fill="#4E4E4E"/>
</svg>
