<svg width="17" height="16" viewBox="0 0 17 16" fill="none" xmlns="http://www.w3.org/2000/svg">
<mask id="path-1-inside-1_4735_136582" fill="white">
<path d="M14.8008 14.666H2.80078C2.52745 14.666 2.30078 14.4393 2.30078 14.166C2.30078 13.8927 2.52745 13.666 2.80078 13.666H14.8008C15.0741 13.666 15.3008 13.8927 15.3008 14.166C15.3008 14.4393 15.0741 14.666 14.8008 14.666Z"/>
</mask>
<path d="M14.8008 14.666H2.80078C2.52745 14.666 2.30078 14.4393 2.30078 14.166C2.30078 13.8927 2.52745 13.666 2.80078 13.666H14.8008C15.0741 13.666 15.3008 13.8927 15.3008 14.166C15.3008 14.4393 15.0741 14.666 14.8008 14.666Z" fill="#006AFF"/>
<path d="M14.8008 13.666H2.80078V15.666H14.8008V13.666ZM2.80078 13.666C3.07973 13.666 3.30078 13.8871 3.30078 14.166H1.30078C1.30078 14.9916 1.97516 15.666 2.80078 15.666V13.666ZM3.30078 14.166C3.30078 14.445 3.07973 14.666 2.80078 14.666V12.666C1.97516 12.666 1.30078 13.3404 1.30078 14.166H3.30078ZM2.80078 14.666H14.8008V12.666H2.80078V14.666ZM14.8008 14.666C14.5218 14.666 14.3008 14.445 14.3008 14.166H16.3008C16.3008 13.3404 15.6264 12.666 14.8008 12.666V14.666ZM14.3008 14.166C14.3008 13.8871 14.5218 13.666 14.8008 13.666V15.666C15.6264 15.666 16.3008 14.9916 16.3008 14.166H14.3008Z" fill="#006AFF" mask="url(#path-1-inside-1_4735_136582)"/>
<path d="M13.1276 2.67398L13.1276 2.67399L13.1294 2.67576C13.741 3.28126 13.966 3.79913 13.9612 4.27538L13.9612 4.27538V4.28043C13.9612 4.7379 13.7362 5.25104 13.1294 5.85175L13.1294 5.85174L13.1261 5.85501L12.4239 6.56311C10.9217 6.08826 9.71617 4.88377 9.23989 3.38214L9.94804 2.67398C10.5587 2.06329 11.0861 1.83494 11.5471 1.83792C12.0098 1.84091 12.5313 2.07765 13.1276 2.67398Z" fill="#006AFF" stroke="#006AFF"/>
<path d="M11.2064 7.68654C11.013 7.5932 10.8264 7.49987 10.6464 7.3932C10.4997 7.30654 10.3597 7.2132 10.2197 7.1132C10.1064 7.03987 9.97302 6.9332 9.84636 6.82654C9.83302 6.81987 9.78636 6.77987 9.73302 6.72654C9.51302 6.53987 9.26636 6.29987 9.04636 6.0332C9.02636 6.01987 8.99302 5.9732 8.94636 5.9132C8.87969 5.8332 8.76636 5.69987 8.66636 5.54654C8.58636 5.44654 8.49302 5.29987 8.40636 5.1532C8.29969 4.9732 8.20636 4.7932 8.11302 4.60654C7.99065 4.34431 7.64648 4.26641 7.44186 4.47103L3.69303 8.21987C3.60636 8.30654 3.52636 8.4732 3.50636 8.58654L3.14636 11.1399C3.07969 11.5932 3.20636 12.0199 3.48636 12.3065C3.72636 12.5399 4.05969 12.6665 4.41969 12.6665C4.49969 12.6665 4.57969 12.6599 4.65969 12.6465L7.21969 12.2865C7.33969 12.2665 7.50636 12.1865 7.58636 12.0999L11.3414 8.34484C11.5419 8.14432 11.4666 7.79929 11.2064 7.68654Z" fill="#006AFF"/>
</svg>
