<svg width="16" height="17" viewBox="0 0 16 17" fill="none" xmlns="http://www.w3.org/2000/svg">
<path d="M9.68661 6.81328L6.31328 10.1866C5.87995 9.75328 5.61328 9.15995 5.61328 8.49995C5.61328 7.17995 6.67995 6.11328 7.99995 6.11328C8.65995 6.11328 9.25328 6.37995 9.68661 6.81328Z" stroke="#4E4E4E" stroke-width="1.5" stroke-linecap="round" stroke-linejoin="round"/>
<path d="M11.8799 4.34633C10.7132 3.46633 9.3799 2.98633 7.9999 2.98633C5.64656 2.98633 3.45323 4.37299 1.92656 6.77299C1.32656 7.71299 1.32656 9.293 1.92656 10.233C2.45323 11.0597 3.06656 11.773 3.73323 12.3463" stroke="#4E4E4E" stroke-width="1.5" stroke-linecap="round" stroke-linejoin="round"/>
<path d="M5.61328 13.5204C6.37328 13.8404 7.17995 14.0138 7.99995 14.0138C10.3533 14.0138 12.5466 12.6271 14.0733 10.2271C14.6733 9.28711 14.6733 7.70711 14.0733 6.76711C13.8533 6.42044 13.6133 6.09378 13.3666 5.78711" stroke="#4E4E4E" stroke-width="1.5" stroke-linecap="round" stroke-linejoin="round"/>
<path d="M10.3409 8.9668C10.1676 9.9068 9.40094 10.6735 8.46094 10.8468" stroke="#4E4E4E" stroke-width="1.5" stroke-linecap="round" stroke-linejoin="round"/>
<path d="M6.31203 10.1875L1.33203 15.1675" stroke="#4E4E4E" stroke-width="1.5" stroke-linecap="round" stroke-linejoin="round"/>
<path d="M14.6675 1.83398L9.6875 6.81398" stroke="#4E4E4E" stroke-width="1.5" stroke-linecap="round" stroke-linejoin="round"/>
</svg>
