<svg width="16" height="17" viewBox="0 0 16 17" fill="none" xmlns="http://www.w3.org/2000/svg">
<path d="M10.3866 8.49995C10.3866 9.81995 9.31995 10.8866 7.99995 10.8866C6.67995 10.8866 5.61328 9.81995 5.61328 8.49995C5.61328 7.17995 6.67995 6.11328 7.99995 6.11328C9.31995 6.11328 10.3866 7.17995 10.3866 8.49995Z" stroke="#4E4E4E" stroke-width="1.5" stroke-linecap="round" stroke-linejoin="round"/>
<path d="M7.9999 14.0138C10.3532 14.0138 12.5466 12.6271 14.0732 10.2271C14.6732 9.28714 14.6732 7.70714 14.0732 6.76714C12.5466 4.36714 10.3532 2.98047 7.9999 2.98047C5.64656 2.98047 3.45323 4.36714 1.92656 6.76714C1.32656 7.70714 1.32656 9.28714 1.92656 10.2271C3.45323 12.6271 5.64656 14.0138 7.9999 14.0138Z" stroke="#4E4E4E" stroke-width="1.5" stroke-linecap="round" stroke-linejoin="round"/>
</svg>
