<svg width="20" height="20" viewBox="0 0 20 20" fill="none" xmlns="http://www.w3.org/2000/svg">
<path d="M18.3346 13.492C18.3346 16.5253 16.5263 18.3337 13.493 18.3337H12.5013C12.043 18.3337 11.668 17.9587 11.668 17.5003V12.692C11.668 12.467 11.8513 12.2753 12.0763 12.2753L13.543 12.2503C13.6596 12.242 13.7596 12.1587 13.7846 12.042L14.0763 10.4503C14.1013 10.3003 13.9846 10.1587 13.8263 10.1587L12.0513 10.1837C11.818 10.1837 11.6346 10.0003 11.6263 9.77534L11.593 7.73366C11.593 7.60032 11.7013 7.48367 11.843 7.48367L13.843 7.45033C13.9846 7.45033 14.093 7.342 14.093 7.20034L14.0596 5.20032C14.0596 5.05865 13.9513 4.95033 13.8096 4.95033L11.5596 4.98367C10.1763 5.00867 9.07631 6.14199 9.10131 7.52532L9.14297 9.81699C9.1513 10.0503 8.96798 10.2337 8.73464 10.242L7.73463 10.2587C7.59297 10.2587 7.48464 10.367 7.48464 10.5086L7.50964 12.092C7.50964 12.2337 7.61797 12.342 7.75963 12.342L8.75964 12.3253C8.99298 12.3253 9.17629 12.5087 9.18463 12.7337L9.25962 17.4837C9.26796 17.9503 8.89296 18.3337 8.42629 18.3337H6.50963C3.4763 18.3337 1.66797 16.5253 1.66797 13.4837V6.50866C1.66797 3.47532 3.4763 1.66699 6.50963 1.66699H13.493C16.5263 1.66699 18.3346 3.47532 18.3346 6.50866V13.492Z" fill="#006AFF"/>
</svg>
