<svg width="57" height="56" viewBox="0 0 57 56" fill="none" xmlns="http://www.w3.org/2000/svg">
<rect x="4.5" y="4" width="48" height="48" rx="24" fill="#F3CDAB"/>
<rect x="4.5" y="4" width="48" height="48" rx="24" stroke="#FCF3EB" stroke-width="8"/>
<path d="M28.5 18C22.99 18 18.5 22.49 18.5 28C18.5 33.51 22.99 38 28.5 38C34.01 38 38.5 33.51 38.5 28C38.5 22.49 34.01 18 28.5 18ZM27.75 24C27.75 23.59 28.09 23.25 28.5 23.25C28.91 23.25 29.25 23.59 29.25 24V29C29.25 29.41 28.91 29.75 28.5 29.75C28.09 29.75 27.75 29.41 27.75 29V24ZM29.42 32.38C29.37 32.51 29.3 32.61 29.21 32.71C29.11 32.8 29 32.87 28.88 32.92C28.76 32.97 28.63 33 28.5 33C28.37 33 28.24 32.97 28.12 32.92C28 32.87 27.89 32.8 27.79 32.71C27.7 32.61 27.63 32.51 27.58 32.38C27.53 32.26 27.5 32.13 27.5 32C27.5 31.87 27.53 31.74 27.58 31.62C27.63 31.5 27.7 31.39 27.79 31.29C27.89 31.2 28 31.13 28.12 31.08C28.36 30.98 28.64 30.98 28.88 31.08C29 31.13 29.11 31.2 29.21 31.29C29.3 31.39 29.37 31.5 29.42 31.62C29.47 31.74 29.5 31.87 29.5 32C29.5 32.13 29.47 32.26 29.42 32.38Z" fill="#DC6803"/>
</svg>
