<svg width="40" height="40" viewBox="0 0 40 40" fill="none" xmlns="http://www.w3.org/2000/svg">
<rect x="0.5" y="0.5" width="39" height="39" rx="3.5" stroke="#006AFF"/>
<path d="M21.547 24.7132C21.547 25.1198 21.2803 25.6532 20.9403 25.8598L20.0004 26.4665C19.127 27.0065 17.9137 26.3998 17.9137 25.3198V21.7532C17.9137 21.2798 17.647 20.6732 17.3737 20.3398L14.8137 17.6465C14.4737 17.3065 14.207 16.7065 14.207 16.2998V14.7532C14.207 13.9465 14.8137 13.3398 15.5537 13.3398H24.447C25.187 13.3398 25.7937 13.9465 25.7937 14.6865V16.1665C25.7937 16.7065 25.4537 17.3798 25.1204 17.7132" stroke="#006AFF" stroke-width="1.5" stroke-miterlimit="10" stroke-linecap="round" stroke-linejoin="round"/>
<path d="M22.7134 23.0128C23.8916 23.0128 24.8468 22.0576 24.8468 20.8794C24.8468 19.7012 23.8916 18.7461 22.7134 18.7461C21.5352 18.7461 20.5801 19.7012 20.5801 20.8794C20.5801 22.0576 21.5352 23.0128 22.7134 23.0128Z" stroke="#006AFF" stroke-width="1.5" stroke-linecap="round" stroke-linejoin="round"/>
<path d="M25.2467 23.4128L24.5801 22.7461" stroke="#006AFF" stroke-width="1.5" stroke-linecap="round" stroke-linejoin="round"/>
</svg>
