<svg width="17" height="17" viewBox="0 0 17 17" fill="none" xmlns="http://www.w3.org/2000/svg">
<path d="M14.9193 10.3327C14.9193 10.926 14.7526 11.486 14.4593 11.966C13.9126 12.886 12.9059 13.4993 11.7526 13.4993C10.5993 13.4993 9.5926 12.8794 9.04594 11.966C8.7526 11.4927 8.58594 10.926 8.58594 10.3327C8.58594 8.58602 10.0059 7.16602 11.7526 7.16602C13.4993 7.16602 14.9193 8.58602 14.9193 10.3327Z" stroke="white" stroke-width="1.5" stroke-miterlimit="10" stroke-linecap="round" stroke-linejoin="round"/>
<path d="M12.9409 10.3203H10.5742" stroke="white" stroke-width="1.5" stroke-miterlimit="10" stroke-linecap="round" stroke-linejoin="round"/>
<path d="M11.7539 9.16602V11.5327" stroke="white" stroke-width="1.5" stroke-miterlimit="10" stroke-linecap="round" stroke-linejoin="round"/>
<path d="M14.2937 3.18066V4.66064C14.2937 5.20064 13.9537 5.87399 13.6204 6.21399L12.447 7.24731C12.227 7.19398 11.9937 7.16732 11.7537 7.16732C10.007 7.16732 8.58703 8.58732 8.58703 10.334C8.58703 10.9273 8.7537 11.4873 9.04703 11.9673C9.2937 12.3807 9.6337 12.734 10.047 12.9873V13.214C10.047 13.6207 9.78036 14.1606 9.44036 14.3606L8.50036 14.9673C7.62703 15.5073 6.4137 14.9006 6.4137 13.8206V10.254C6.4137 9.78065 6.14036 9.17399 5.8737 8.84066L3.3137 6.1473C2.98036 5.8073 2.70703 5.20066 2.70703 4.80066V3.24731C2.70703 2.44065 3.3137 1.83398 4.0537 1.83398H12.947C13.687 1.83398 14.2937 2.44066 14.2937 3.18066Z" stroke="white" stroke-width="1.5" stroke-miterlimit="10" stroke-linecap="round" stroke-linejoin="round"/>
</svg>
