<svg width="16" height="16" viewBox="0 0 16 16" fill="none" xmlns="http://www.w3.org/2000/svg">
<path d="M9.54704 12.7132C9.54704 13.1198 9.28035 13.6532 8.94035 13.8598L8.00037 14.4665C7.12703 15.0065 5.9137 14.3998 5.9137 13.3198V9.75317C5.9137 9.27984 5.64703 8.67318 5.3737 8.33984L2.81368 5.6465C2.47368 5.3065 2.20703 4.70651 2.20703 4.29985V2.75317C2.20703 1.94651 2.81371 1.33984 3.55371 1.33984H12.447C13.187 1.33984 13.7937 1.9465 13.7937 2.6865V4.1665C13.7937 4.7065 13.4537 5.37984 13.1204 5.71318" stroke="#006AFF" stroke-width="1.5" stroke-miterlimit="10" stroke-linecap="round" stroke-linejoin="round"/>
<path d="M10.7134 11.0137C11.8916 11.0137 12.8468 10.0586 12.8468 8.88041C12.8468 7.7022 11.8916 6.74707 10.7134 6.74707C9.53521 6.74707 8.58008 7.7022 8.58008 8.88041C8.58008 10.0586 9.53521 11.0137 10.7134 11.0137Z" stroke="#006AFF" stroke-width="1.5" stroke-linecap="round" stroke-linejoin="round"/>
<path d="M13.2467 11.4137L12.5801 10.7471" stroke="#006AFF" stroke-width="1.5" stroke-linecap="round" stroke-linejoin="round"/>
</svg>
