<svg width="120" height="120" viewBox="0 0 120 120" fill="none" xmlns="http://www.w3.org/2000/svg">
<rect width="120" height="120" rx="60" fill="#EEF5FF"/>
<path d="M54.8654 31.2173C54.8654 31.914 54.2787 32.5007 53.582 32.5007H49.4387C41.5187 32.5007 35.0654 38.954 35.0654 46.874V80.7173C35.0654 81.414 34.4787 82.0007 33.782 82.0007H31.2154C26.852 82.0007 23.332 78.4807 23.332 74.1173V31.2173C23.332 26.854 26.852 23.334 31.2154 23.334H46.982C51.3454 23.334 54.8654 26.854 54.8654 31.2173Z" fill="#559CFF"/>
<path d="M96.6661 31.2173V74.1173C96.6661 78.4807 93.1461 82.0007 88.7828 82.0007H86.4728C85.7761 82.0007 85.1895 81.414 85.1895 80.7173V46.874C85.1895 38.954 78.7361 32.5007 70.8161 32.5007H66.4161C65.7195 32.5007 65.1328 31.914 65.1328 31.2173C65.1328 26.854 68.6528 23.334 73.0161 23.334H88.7828C93.1461 23.334 96.6661 26.854 96.6661 31.2173Z" fill="#559CFF"/>
<path d="M70.8164 38H49.4397C44.5264 38 40.5664 41.96 40.5664 46.8733V87.7933C40.5664 92.7067 44.5264 96.6667 49.4397 96.6667H55.4164C56.4431 96.6667 57.2497 95.86 57.2497 94.8333V85.6667C57.2497 84.1633 58.4964 82.9167 59.9997 82.9167C61.5031 82.9167 62.7497 84.1633 62.7497 85.6667V94.8333C62.7497 95.86 63.5564 96.6667 64.5831 96.6667H70.8531C75.7297 96.6667 79.6897 92.7067 79.6897 87.83V46.8733C79.6897 41.96 75.7297 38 70.8164 38ZM67.3331 70.0833H52.6664C51.1631 70.0833 49.9164 68.8367 49.9164 67.3333C49.9164 65.83 51.1631 64.5833 52.6664 64.5833H67.3331C68.8364 64.5833 70.0831 65.83 70.0831 67.3333C70.0831 68.8367 68.8364 70.0833 67.3331 70.0833ZM67.3331 59.0833H52.6664C51.1631 59.0833 49.9164 57.8367 49.9164 56.3333C49.9164 54.83 51.1631 53.5833 52.6664 53.5833H67.3331C68.8364 53.5833 70.0831 54.83 70.0831 56.3333C70.0831 57.8367 68.8364 59.0833 67.3331 59.0833Z" fill="#559CFF"/>
</svg>
