<svg width="16" height="16" viewBox="0 0 16 16" fill="none" xmlns="http://www.w3.org/2000/svg">
<path d="M5.33301 4.50065C5.33301 3.03013 6.52915 1.83398 7.99967 1.83398C9.46988 1.83398 10.6658 3.0296 10.6663 4.49969C10.6602 5.9426 9.53639 7.10591 8.10385 7.16065H8.10383H8.1038H8.10378H8.10375H8.10373H8.10371H8.10368H8.10366H8.10363H8.10361H8.10358H8.10356H8.10353H8.10351H8.10348H8.10346H8.10343H8.10341H8.10338H8.10336H8.10333H8.10331H8.10328H8.10326H8.10323H8.10321H8.10318H8.10315H8.10313H8.1031H8.10308H8.10305H8.10302H8.103H8.10297H8.10294H8.10292H8.10289H8.10286H8.10284H8.10281H8.10278H8.10275H8.10273H8.1027H8.10267H8.10264H8.10262H8.10259H8.10256H8.10253H8.1025H8.10248H8.10245H8.10242H8.10239H8.10236H8.10233H8.1023H8.10228H8.10225H8.10222H8.10219H8.10216H8.10213H8.1021H8.10207H8.10204H8.10201H8.10198H8.10195H8.10192H8.10189H8.10186H8.10183H8.1018H8.10176H8.10173H8.1017H8.10167H8.10164H8.10161H8.10158H8.10155H8.10151H8.10148H8.10145H8.10142H8.10138H8.10135H8.10132H8.10129H8.10125H8.10122H8.10119H8.10115H8.10112H8.10109H8.10105H8.10102H8.10099H8.10095H8.10092H8.10088H8.10085H8.10081H8.10078H8.10075H8.10071H8.10068H8.10064H8.1006H8.10057H8.10053H8.1005H8.10046H8.10043H8.10039H8.10035H8.10032H8.10028H8.10024H8.10021H8.10017H8.10013H8.10009H8.10006H8.10002H8.09998H8.09994H8.09991H8.09987H8.09983H8.09979H8.09975H8.09971H8.09967H8.0996H8.09952H8.09944H8.09936H8.09929H8.09921H8.09913H8.09905H8.09898H8.0989H8.09882H8.09875H8.09867H8.0986H8.09852H8.09844H8.09837H8.09829H8.09822H8.09814H8.09807H8.09799H8.09792C8.03144 7.15376 7.9649 7.15454 7.90426 7.15964C6.43951 7.09288 5.33301 5.93043 5.33301 4.50065Z" fill="#4E4E4E" stroke="#4E4E4E"/>
<path d="M11.3866 9.43391C9.52664 8.19391 6.49331 8.19391 4.61997 9.43391C3.77331 10.0006 3.30664 10.7672 3.30664 11.5872C3.30664 12.4072 3.77331 13.1672 4.61331 13.7272C5.54664 14.3539 6.77331 14.6672 7.99997 14.6672C9.22664 14.6672 10.4533 14.3539 11.3866 13.7272C12.2266 13.1606 12.6933 12.4006 12.6933 11.5739C12.6866 10.7539 12.2266 9.99391 11.3866 9.43391Z" fill="#4E4E4E"/>
</svg>
