<svg width="121" height="120" viewBox="0 0 121 120" fill="none" xmlns="http://www.w3.org/2000/svg">
<rect x="0.5" width="120" height="120" rx="60" fill="#EEF5FF"/>
<path d="M89.0637 31.4729C78.2104 20.6562 60.6104 20.6562 49.8304 31.4729C42.2404 38.9895 39.967 49.8062 42.9004 59.3395L25.667 76.5729C24.457 77.8195 23.6137 80.2762 23.8704 82.0362L24.9704 90.0295C25.3737 92.6695 27.8304 95.1629 30.4704 95.5295L38.4637 96.6295C40.2237 96.8862 42.6804 96.0795 43.927 94.7962L46.9337 91.7895C47.667 91.0929 47.667 89.9195 46.9337 89.1862L39.8204 82.0729C38.757 81.0095 38.757 79.2495 39.8204 78.1862C40.8837 77.1229 42.6437 77.1229 43.707 78.1862L50.857 85.3362C51.5537 86.0329 52.727 86.0329 53.4237 85.3362L61.197 77.5995C70.6937 80.5695 81.5104 78.2595 89.0637 70.7429C99.8804 59.9262 99.8804 42.2895 89.0637 31.4729ZM69.667 59.9995C64.607 59.9995 60.5004 55.8929 60.5004 50.8329C60.5004 45.7729 64.607 41.6662 69.667 41.6662C74.727 41.6662 78.8337 45.7729 78.8337 50.8329C78.8337 55.8929 74.727 59.9995 69.667 59.9995Z" fill="#559CFF"/>
</svg>
