<svg width="14" height="14" viewBox="0 0 14 14" fill="none" xmlns="http://www.w3.org/2000/svg">
<path d="M7.00065 0.333984C3.32732 0.333984 0.333984 3.32732 0.333984 7.00065C0.333984 10.674 3.32732 13.6673 7.00065 13.6673C10.674 13.6673 13.6673 10.674 13.6673 7.00065C13.6673 3.32732 10.674 0.333984 7.00065 0.333984ZM6.50065 4.33398C6.50065 4.06065 6.72732 3.83398 7.00065 3.83398C7.27398 3.83398 7.50065 4.06065 7.50065 4.33398V7.66732C7.50065 7.94065 7.27398 8.16732 7.00065 8.16732C6.72732 8.16732 6.50065 7.94065 6.50065 7.66732V4.33398ZM7.61398 9.92065C7.58065 10.0073 7.53398 10.074 7.47398 10.1407C7.40732 10.2007 7.33398 10.2473 7.25398 10.2807C7.17398 10.314 7.08732 10.334 7.00065 10.334C6.91398 10.334 6.82732 10.314 6.74732 10.2807C6.66732 10.2473 6.59398 10.2007 6.52732 10.1407C6.46732 10.074 6.42065 10.0073 6.38732 9.92065C6.35398 9.84065 6.33398 9.75398 6.33398 9.66732C6.33398 9.58065 6.35398 9.49398 6.38732 9.41398C6.42065 9.33398 6.46732 9.26065 6.52732 9.19398C6.59398 9.13398 6.66732 9.08732 6.74732 9.05398C6.90732 8.98732 7.09398 8.98732 7.25398 9.05398C7.33398 9.08732 7.40732 9.13398 7.47398 9.19398C7.53398 9.26065 7.58065 9.33398 7.61398 9.41398C7.64732 9.49398 7.66732 9.58065 7.66732 9.66732C7.66732 9.75398 7.64732 9.84065 7.61398 9.92065Z" fill="#A9A9A9"/>
</svg>
