<svg width="32" height="33" viewBox="0 0 32 33" fill="none" xmlns="http://www.w3.org/2000/svg">
<path d="M28.7452 15.0092L26.9319 12.9025C26.5852 12.5025 26.3052 11.7559 26.3052 11.2225V8.95587C26.3052 7.54254 25.1452 6.38254 23.7319 6.38254H21.4652C20.9452 6.38254 20.1852 6.10254 19.7852 5.75587L17.6785 3.94254C16.7585 3.15587 15.2519 3.15587 14.3185 3.94254L12.2252 5.76921C11.8252 6.10254 11.0652 6.38254 10.5452 6.38254H8.23854C6.82521 6.38254 5.66521 7.54254 5.66521 8.95587V11.2359C5.66521 11.7559 5.38521 12.5025 5.05187 12.9025L3.25187 15.0225C2.47854 15.9425 2.47854 17.4359 3.25187 18.3559L5.05187 20.4759C5.38521 20.8759 5.66521 21.6225 5.66521 22.1425V24.4225C5.66521 25.8359 6.82521 26.9959 8.23854 26.9959H10.5452C11.0652 26.9959 11.8252 27.2759 12.2252 27.6225L14.3319 29.4359C15.2519 30.2225 16.7585 30.2225 17.6919 29.4359L19.7985 27.6225C20.1985 27.2759 20.9452 26.9959 21.4785 26.9959H23.7452C25.1585 26.9959 26.3185 25.8359 26.3185 24.4225V22.1559C26.3185 21.6359 26.5985 20.8759 26.9452 20.4759L28.7585 18.3692C29.5319 17.4492 29.5319 15.9292 28.7452 15.0092ZM21.5452 14.1692L15.1052 20.6092C14.9185 20.7959 14.6652 20.9025 14.3985 20.9025C14.1319 20.9025 13.8785 20.7959 13.6919 20.6092L10.4652 17.3825C10.0785 16.9959 10.0785 16.3559 10.4652 15.9692C10.8519 15.5825 11.4919 15.5825 11.8785 15.9692L14.3985 18.4892L20.1319 12.7559C20.5185 12.3692 21.1585 12.3692 21.5452 12.7559C21.9319 13.1425 21.9319 13.7825 21.5452 14.1692Z" fill="#039855"/>
</svg>
