<svg width="24" height="24" viewBox="0 0 24 24" fill="none" xmlns="http://www.w3.org/2000/svg">
<path d="M16.44 2.09961C14.7302 2.09961 13.1665 2.76396 12 3.84234C10.8335 2.76396 9.2698 2.09961 7.56 2.09961C3.93305 2.09961 1 5.052 1 8.68961C1 9.9871 1.20731 11.1898 1.5675 12.3042C2.42946 15.0292 4.17523 17.1735 5.98696 18.7305C7.79294 20.2826 9.7214 21.3007 11.0533 21.7548C11.3621 21.8626 11.7055 21.8996 12 21.8996C12.2945 21.8996 12.6379 21.8626 12.9467 21.7548C14.2786 21.3007 16.2071 20.2826 18.013 18.7305C19.8248 17.1734 21.5706 15.0292 22.4325 12.3041C22.7927 11.1897 23 9.98708 23 8.68961C23 5.052 20.067 2.09961 16.44 2.09961Z" stroke="#202020" stroke-width="2"/>
</svg>
