<svg width="16" height="17" viewBox="0 0 16 17" fill="none" xmlns="http://www.w3.org/2000/svg">
<path d="M8.80847 12.0123L8.82803 11.9947L8.84563 11.9751C8.93212 11.879 9.017 11.7629 9.07823 11.6064C9.13139 11.4768 9.16732 11.3271 9.16732 11.1673C9.16732 11.0048 9.13017 10.8528 9.07552 10.7217C9.01971 10.5877 8.94207 10.4667 8.84563 10.3595L8.82803 10.3399L8.80847 10.3223C8.70131 10.2259 8.58023 10.1483 8.44629 10.0924C8.43464 10.0876 8.42291 10.0829 8.41112 10.0785C8.75774 9.9209 9.00065 9.57079 9.00065 9.16732V5.83398C9.00065 5.28451 8.55013 4.83398 8.00065 4.83398C7.45118 4.83398 7.00065 5.28451 7.00065 5.83398V9.16732C7.00065 9.57079 7.24356 9.9209 7.59018 10.0785C7.57839 10.0829 7.56667 10.0876 7.55501 10.0924C7.42107 10.1483 7.29999 10.2259 7.19283 10.3223L7.17327 10.3399L7.15567 10.3595C7.05923 10.4667 6.98159 10.5877 6.92578 10.7217C6.87114 10.8528 6.83398 11.0048 6.83398 11.1673C6.83398 11.3271 6.86992 11.4768 6.92308 11.6064C6.98431 11.7629 7.06918 11.879 7.15567 11.9751L7.17327 11.9947L7.19283 12.0123C7.29999 12.1087 7.42107 12.1864 7.55501 12.2422C7.68616 12.2968 7.83814 12.334 8.00065 12.334C8.16317 12.334 8.31515 12.2968 8.44629 12.2422C8.58023 12.1864 8.70131 12.1087 8.80847 12.0123ZM1.83398 8.50065C1.83398 5.10346 4.60346 2.33398 8.00065 2.33398C11.3978 2.33398 14.1673 5.10346 14.1673 8.50065C14.1673 11.8978 11.3978 14.6673 8.00065 14.6673C4.60346 14.6673 1.83398 11.8978 1.83398 8.50065Z" fill="#006AFF" stroke="#006AFF"/>
</svg>
