<svg width="16" height="17" viewBox="0 0 16 17" fill="none" xmlns="http://www.w3.org/2000/svg">
<path d="M5.33376 8.43066C5.33376 6.95797 6.5273 5.76378 8 5.76378C9.4727 5.76378 10.6669 6.95797 10.6669 8.43066C10.6669 9.90336 9.4727 11.0975 8 11.0975C6.5273 11.0975 5.33376 9.90336 5.33376 8.43066ZM3.89208 8.43066C3.89208 10.6995 5.73118 12.5386 8 12.5386C10.2688 12.5386 12.1079 10.6995 12.1079 8.43066C12.1079 6.16184 10.2688 4.32275 8 4.32275C5.73118 4.32275 3.89208 6.16184 3.89208 8.43066ZM11.3105 4.1599C11.3105 4.68979 11.7402 5.12016 12.2708 5.12016C12.8006 5.12016 13.231 4.68979 13.231 4.1599C13.231 3.63002 12.8013 3.20029 12.2708 3.20029C11.7402 3.20029 11.3105 3.63002 11.3105 4.1599ZM4.76769 14.9425C3.98772 14.9069 3.56381 14.777 3.28207 14.6672C2.90856 14.5218 2.64233 14.3486 2.36187 14.0688C2.08207 13.789 1.90824 13.5227 1.76349 13.1492C1.65363 12.8675 1.52375 12.4436 1.48821 11.6636C1.44943 10.8203 1.44168 10.567 1.44168 8.43066C1.44168 6.29432 1.45008 6.04165 1.48821 5.19771C1.52375 4.41774 1.65428 3.99448 1.76349 3.71209C1.90889 3.33858 2.08207 3.07234 2.36187 2.79189C2.64168 2.51209 2.90792 2.33826 3.28207 2.19351C3.56381 2.08365 3.98772 1.95377 4.76769 1.91822C5.61099 1.87945 5.8643 1.8717 8 1.8717C10.1363 1.8717 10.389 1.8801 11.233 1.91822C12.0129 1.95377 12.4362 2.0843 12.7186 2.19351C13.0921 2.33826 13.3583 2.51209 13.6388 2.79189C13.9186 3.0717 14.0918 3.33858 14.2372 3.71209C14.347 3.99383 14.4769 4.41774 14.5124 5.19771C14.5512 6.04165 14.559 6.29432 14.559 8.43066C14.559 10.5664 14.5512 10.8197 14.5124 11.6636C14.4769 12.4436 14.3464 12.8675 14.2372 13.1492C14.0918 13.5227 13.9186 13.789 13.6388 14.0688C13.359 14.3486 13.0921 14.5218 12.7186 14.6672C12.4368 14.777 12.0129 14.9069 11.233 14.9425C10.3897 14.9812 10.1363 14.989 8 14.989C5.8643 14.989 5.61099 14.9812 4.76769 14.9425ZM4.70178 0.479129C3.85008 0.517902 3.2685 0.652958 2.75994 0.850696C2.23393 1.0549 1.78805 1.32889 1.34281 1.77348C0.898223 2.21806 0.624233 2.66394 0.420032 3.1906C0.222294 3.69916 0.0872375 4.28074 0.0484653 5.13244C0.00904685 5.98543 0 6.25813 0 8.43066C0 10.6032 0.00904685 10.8759 0.0484653 11.7289C0.0872375 12.5806 0.222294 13.1622 0.420032 13.6707C0.624233 14.1967 0.897577 14.6433 1.34281 15.0879C1.7874 15.5324 2.23328 15.8058 2.75994 16.0106C3.26914 16.2084 3.85008 16.3434 4.70178 16.3822C5.55541 16.421 5.82746 16.4307 8 16.4307C10.1732 16.4307 10.4452 16.4216 11.2982 16.3822C12.1499 16.3434 12.7315 16.2084 13.2401 16.0106C13.7661 15.8058 14.212 15.5324 14.6572 15.0879C15.1018 14.6433 15.3751 14.1967 15.58 13.6707C15.7777 13.1622 15.9134 12.5806 15.9515 11.7289C15.9903 10.8753 15.9994 10.6032 15.9994 8.43066C15.9994 6.25813 15.9903 5.98543 15.9515 5.13244C15.9128 4.28074 15.7777 3.69916 15.58 3.1906C15.3751 2.66459 15.1018 2.21871 14.6572 1.77348C14.2126 1.32889 13.7661 1.0549 13.2407 0.850696C12.7315 0.652958 12.1499 0.517255 11.2989 0.479129C10.4459 0.440357 10.1732 0.430664 8.00065 0.430664C5.82746 0.430664 5.55541 0.439711 4.70178 0.479129Z" fill="#006AFF"/>
</svg>
