<svg width="16" height="16" viewBox="0 0 16 16" fill="none" xmlns="http://www.w3.org/2000/svg">
<path d="M3.88687 12.3664L4.24042 12.0129L3.88687 12.3664L5.06332 13.5429L4.63354 13.9727L4.6335 13.9726L4.62845 13.9778C4.58592 14.0216 4.49482 14.081 4.36731 14.1235C4.24012 14.1659 4.1291 14.174 4.06591 14.1648L4.06192 14.1642L2.60921 13.9643C2.60912 13.9643 2.60903 13.9643 2.60894 13.9643C2.49725 13.9487 2.36158 13.8817 2.24229 13.7618C2.12403 13.643 2.05388 13.5043 2.03515 13.387L1.83575 11.9381L1.83577 11.9381L1.83519 11.9341C1.82636 11.8735 1.83458 11.7632 1.8781 11.6327C1.92087 11.5044 1.98019 11.4092 2.02397 11.3631L5.15398 8.23311L5.36684 8.02024L5.27831 7.73251C4.79685 6.16777 5.17121 4.39721 6.41226 3.16816L6.41226 3.16816L6.41458 3.16584C8.1784 1.39602 11.0616 1.39418 12.8405 3.1667C14.6115 4.93803 14.6115 7.8277 12.8405 9.59905C11.6027 10.8304 9.83105 11.2086 8.27633 10.7223L7.98829 10.6323L7.77437 10.8452L6.48071 12.1327L5.30064 10.9527C4.91205 10.5641 4.27547 10.5641 3.88687 10.9527C3.49827 11.3413 3.49827 11.9778 3.88687 12.3664ZM7.50042 6.33289C7.50042 7.52903 8.47095 8.49956 9.66709 8.49956C10.8632 8.49956 11.8338 7.52903 11.8338 6.33289C11.8338 5.13675 10.8632 4.16622 9.66709 4.16622C8.47095 4.16622 7.50042 5.13675 7.50042 6.33289Z" fill="#006AFF" stroke="#006AFF"/>
</svg>
