<svg width="16" height="16" viewBox="0 0 16 16" fill="none" xmlns="http://www.w3.org/2000/svg">
<path d="M4.50417 14.6667H11.4908C13.3308 14.6667 14.0642 13.54 14.1508 12.1667L14.4975 6.66004C14.5908 5.22004 13.4442 4.00004 11.9975 4.00004C11.5908 4.00004 11.2175 3.76671 11.0308 3.40671L10.5508 2.44004C10.2442 1.83337 9.44417 1.33337 8.76417 1.33337H7.23751C6.55084 1.33337 5.75084 1.83337 5.44417 2.44004L4.96417 3.40671C4.77751 3.76671 4.40417 4.00004 3.99751 4.00004C2.55084 4.00004 1.40417 5.22004 1.49751 6.66004L1.84417 12.1667C1.92417 13.54 2.66417 14.6667 4.50417 14.6667Z" stroke="#006AFF" stroke-width="1.5" stroke-linecap="round" stroke-linejoin="round"/>
<path d="M7 5.33337H9" stroke="#006AFF" stroke-width="1.5" stroke-linecap="round" stroke-linejoin="round"/>
<path d="M8.0026 12C9.19594 12 10.1693 11.0266 10.1693 9.83329C10.1693 8.63996 9.19594 7.66663 8.0026 7.66663C6.80927 7.66663 5.83594 8.63996 5.83594 9.83329C5.83594 11.0266 6.80927 12 8.0026 12Z" stroke="#006AFF" stroke-width="1.5" stroke-linecap="round" stroke-linejoin="round"/>
</svg>
