<svg width="24" height="24" viewBox="0 0 24 24" fill="none" xmlns="http://www.w3.org/2000/svg">
<path d="M8.56567 20.3596L8.56581 20.3597C9.52994 21.2875 10.7646 21.75 11.9991 21.75C13.2341 21.75 14.4676 21.2872 15.4207 20.3614L15.4226 20.3596C18.2551 17.636 21.2398 13.4489 20.1316 8.56081L8.56567 20.3596ZM8.56567 20.3596C5.73344 17.6363 2.74841 13.4392 3.85669 8.55081L8.56567 20.3596ZM11.9991 2.25C15.365 2.25 19.1453 4.22167 20.1315 8.56057L3.85674 8.55057C4.84273 4.21277 8.63187 2.25 11.9891 2.25H11.9892H11.9892H11.9893H11.9894H11.9894H11.9895H11.9895H11.9896H11.9896H11.9897H11.9897H11.9898H11.9899H11.9899H11.99H11.99H11.9901H11.9901H11.9902H11.9902H11.9903H11.9904H11.9904H11.9905H11.9905H11.9906H11.9906H11.9907H11.9907H11.9908H11.9908H11.9909H11.9909H11.991H11.991H11.9911H11.9911H11.9912H11.9912H11.9913H11.9913H11.9914H11.9914H11.9915H11.9915H11.9916H11.9916H11.9917H11.9917H11.9918H11.9918H11.9919H11.9919H11.992H11.992H11.9921H11.9921H11.9921H11.9922H11.9922H11.9923H11.9923H11.9924H11.9924H11.9925H11.9925H11.9926H11.9926H11.9926H11.9927H11.9927H11.9928H11.9928H11.9929H11.9929H11.9929H11.993H11.993H11.9931H11.9931H11.9932H11.9932H11.9932H11.9933H11.9933H11.9934H11.9934H11.9934H11.9935H11.9935H11.9936H11.9936H11.9936H11.9937H11.9937H11.9938H11.9938H11.9938H11.9939H11.9939H11.9939H11.994H11.994H11.9941H11.9941H11.9941H11.9942H11.9942H11.9942H11.9943H11.9943H11.9944H11.9944H11.9944H11.9945H11.9945H11.9945H11.9946H11.9946H11.9946H11.9947H11.9947H11.9947H11.9948H11.9948H11.9948H11.9949H11.9949H11.9949H11.995H11.995H11.995H11.9951H11.9951H11.9951H11.9952H11.9952H11.9952H11.9953H11.9953H11.9953H11.9953H11.9954H11.9954H11.9954H11.9955H11.9955H11.9955H11.9956H11.9956H11.9956H11.9956H11.9957H11.9957H11.9957H11.9958H11.9958H11.9958H11.9958H11.9959H11.9959H11.9959H11.996H11.996H11.996H11.996H11.9961H11.9961H11.9961H11.9961H11.9962H11.9962H11.9962H11.9962H11.9963H11.9963H11.9963H11.9963H11.9964H11.9964H11.9964H11.9964H11.9965H11.9965H11.9965H11.9965H11.9966H11.9966H11.9966H11.9966H11.9967H11.9967H11.9967H11.9967H11.9967H11.9968H11.9968H11.9968H11.9968H11.9969H11.9969H11.9969H11.9969H11.9969H11.997H11.997H11.997H11.997H11.997H11.9971H11.9971H11.9971H11.9971H11.9971H11.9972H11.9972H11.9972H11.9972H11.9972H11.9973H11.9973H11.9973H11.9973H11.9973H11.9974H11.9974H11.9974H11.9974H11.9974H11.9974H11.9975H11.9975H11.9975H11.9975H11.9975H11.9976H11.9976H11.9976H11.9976H11.9976H11.9976H11.9977H11.9977H11.9977H11.9977H11.9977H11.9977H11.9977H11.9978H11.9978H11.9978H11.9978H11.9978H11.9978H11.9979H11.9979H11.9979H11.9979H11.9979H11.9979H11.9979H11.998H11.998H11.998H11.998H11.998H11.998H11.998H11.998H11.9981H11.9981H11.9981H11.9981H11.9981H11.9981H11.9981H11.9982H11.9982H11.9982H11.9982H11.9982H11.9982H11.9982H11.9982H11.9982H11.9983H11.9983H11.9983H11.9983H11.9983H11.9983H11.9983H11.9983H11.9983H11.9984H11.9984H11.9984H11.9984H11.9984H11.9984H11.9984H11.9984H11.9984H11.9984H11.9985H11.9985H11.9985H11.9985H11.9985H11.9985H11.9985H11.9985H11.9985H11.9985H11.9985H11.9986H11.9986H11.9986H11.9986H11.9986H11.9986H11.9986H11.9986H11.9986H11.9986H11.9986H11.9986H11.9987H11.9987H11.9987H11.9987H11.9987H11.9987H11.9987H11.9987H11.9987H11.9988H11.9988H11.9988H11.9988H11.9988H11.9988H11.9988H11.9988H11.9989H11.9989H11.9989H11.9989H11.9989H11.9989H11.9989H11.9989H11.9989H11.9989H11.9989H11.999H11.999H11.999H11.999H11.999H11.999H11.999H11.999H11.999H11.999H11.999H11.999H11.9991H11.9991H11.9991H11.9991H11.9991H11.9991H11.9991H11.9991H11.9991ZM8.34912 10.31C8.34912 12.3261 9.98298 13.96 11.9991 13.96C14.0153 13.96 15.6491 12.3261 15.6491 10.31C15.6491 8.29386 14.0153 6.66 11.9991 6.66C9.98298 6.66 8.34912 8.29386 8.34912 10.31Z" fill="#A9A9A9" stroke="#A9A9A9"/>
</svg>
