<svg width="13" height="17" viewBox="0 0 13 17" fill="none" xmlns="http://www.w3.org/2000/svg">
<path d="M6.17969 8.4997C6.59219 8.4997 6.94544 8.34434 7.23944 8.03363C7.53294 7.72344 7.67969 7.35037 7.67969 6.91441C7.67969 6.47846 7.53294 6.10512 7.23944 5.7944C6.94544 5.48421 6.59219 5.32912 6.17969 5.32912C5.76719 5.32912 5.41419 5.48421 5.12069 5.7944C4.82669 6.10512 4.67969 6.47846 4.67969 6.91441C4.67969 7.35037 4.82669 7.72344 5.12069 8.03363C5.41419 8.34434 5.76719 8.4997 6.17969 8.4997ZM6.17969 16.4262C4.16719 14.6163 2.66419 12.9351 1.67069 11.3826C0.676687 9.83056 0.179688 8.39402 0.179688 7.07294C0.179688 5.09132 0.782938 3.51264 1.98944 2.33688C3.19544 1.16112 4.59219 0.573242 6.17969 0.573242C7.76719 0.573242 9.16394 1.16112 10.3699 2.33688C11.5764 3.51264 12.1797 5.09132 12.1797 7.07294C12.1797 8.39402 11.6829 9.83056 10.6894 11.3826C9.69544 12.9351 8.19219 14.6163 6.17969 16.4262Z" fill="#111111"/>
</svg>
