<svg width="10" height="11" viewBox="0 0 10 11" fill="none" xmlns="http://www.w3.org/2000/svg">
<path d="M8.05126 7.87114L8.05126 7.87113L8.0481 7.87189C7.72339 7.95088 7.44911 8.20266 7.37057 8.55432L7.2625 9.00822L6.41322 8.03113C6.97623 7.82244 7.48739 7.49002 7.90798 7.05654L8.59424 7.7428L8.05126 7.87114Z" fill="#006AFF" stroke="#006AFF"/>
<path d="M1.12531 8.19523L1.81281 8.35773C1.96698 8.39523 2.08781 8.51189 2.12115 8.66606L2.26698 9.27856C2.34615 9.61189 2.77115 9.71606 2.99198 9.45356L4.23781 8.02023C4.33781 7.90356 4.28365 7.72023 4.13365 7.68273C3.39615 7.50356 2.73365 7.09106 2.24615 6.50356C2.16698 6.40773 2.02531 6.39523 1.93781 6.48273L1.01281 7.40773C0.696145 7.72439 0.808645 8.12023 1.12531 8.19523Z" fill="#006AFF"/>
<path d="M4.99967 1.33398C3.38717 1.33398 2.08301 2.63815 2.08301 4.25065C2.08301 4.85482 2.26217 5.40898 2.57051 5.87148C3.02051 6.53815 3.73301 7.00898 4.56217 7.12982C4.70384 7.15482 4.84967 7.16732 4.99967 7.16732C5.14967 7.16732 5.29551 7.15482 5.43717 7.12982C6.26634 7.00898 6.97884 6.53815 7.42884 5.87148C7.73717 5.40898 7.91634 4.85482 7.91634 4.25065C7.91634 2.63815 6.61217 1.33398 4.99967 1.33398ZM6.27467 4.15898L5.92884 4.50482C5.87051 4.56315 5.83717 4.67565 5.85801 4.75898L5.95801 5.18815C6.03717 5.52565 5.85801 5.65898 5.55801 5.47982L5.14134 5.23398C5.06634 5.18815 4.94134 5.18815 4.86634 5.23398L4.44967 5.47982C4.14967 5.65482 3.97051 5.52565 4.04967 5.18815L4.14967 4.75898C4.16634 4.67982 4.13717 4.56315 4.07884 4.50482L3.72467 4.15898C3.52051 3.95482 3.58717 3.75065 3.87051 3.70482L4.31634 3.62982C4.39134 3.61732 4.47884 3.55065 4.51217 3.48398L4.75801 2.99232C4.89134 2.72565 5.10801 2.72565 5.24134 2.99232L5.48717 3.48398C5.52051 3.55065 5.60801 3.61732 5.68717 3.62982L6.13301 3.70482C6.41217 3.75065 6.47884 3.95482 6.27467 4.15898Z" fill="#006AFF"/>
</svg>
