<svg width="32" height="32" viewBox="0 0 32 32" fill="none" xmlns="http://www.w3.org/2000/svg">
<path d="M8.09332 8.55152L8.10306 8.55068L8.11275 8.54947C8.40487 8.51296 8.71583 8.5 9.05073 8.5H17.5841C19.6333 8.5 21.0805 9.01353 22.0188 9.95189C22.9572 10.8902 23.4707 12.3375 23.4707 14.3867V19.72C23.4707 20.0549 23.4578 20.3659 23.4213 20.658L23.42 20.6678L23.4192 20.6776C23.2736 22.3869 22.7057 23.5942 21.7772 24.3821C20.8421 25.1757 19.4674 25.6067 17.5841 25.6067H17.0507C16.56 25.6067 16.0918 25.8408 15.7974 26.2333L14.1974 28.3667L14.1967 28.3676C13.9227 28.7346 13.5994 28.8767 13.3174 28.8767C13.0354 28.8767 12.7121 28.7346 12.4381 28.3676L12.4374 28.3667L10.8374 26.2333L10.8374 26.2333L10.8346 26.2296C10.6895 26.0399 10.482 25.8902 10.2813 25.7887C10.0808 25.6874 9.83253 25.6067 9.58406 25.6067H9.05073C6.93227 25.6067 5.50613 25.3356 4.59127 24.5367C3.69322 23.7525 3.16406 22.3437 3.16406 19.72V14.3867C3.16406 12.5041 3.59802 11.1293 4.39334 10.1939C5.18318 9.2648 6.39093 8.69707 8.09332 8.55152ZM6.83073 17.3333C6.83073 18.3395 7.638 19.1667 8.66406 19.1667C9.67354 19.1667 10.4974 18.3428 10.4974 17.3333C10.4974 16.3239 9.67354 15.5 8.66406 15.5C7.65459 15.5 6.83073 16.3239 6.83073 17.3333ZM11.4841 17.3333C11.4841 18.3395 12.2913 19.1667 13.3174 19.1667C14.3435 19.1667 15.1507 18.3395 15.1507 17.3333C15.1507 16.3239 14.3269 15.5 13.3174 15.5C12.3079 15.5 11.4841 16.3239 11.4841 17.3333ZM16.1507 17.3333C16.1507 18.3395 16.958 19.1667 17.9841 19.1667C18.9935 19.1667 19.8174 18.3428 19.8174 17.3333C19.8174 16.3239 18.9935 15.5 17.9841 15.5C16.9746 15.5 16.1507 16.3239 16.1507 17.3333Z" fill="#D92D20" stroke="#D92D20"/>
<path d="M29.3044 9.05366V14.387C29.3044 17.0537 28.4777 18.867 26.8244 19.867C26.4244 20.107 25.9577 19.787 25.9577 19.3203L25.9711 14.387C25.9711 9.05366 22.9177 6.00033 17.5844 6.00033L9.46439 6.01366C8.99772 6.01366 8.67772 5.54699 8.91772 5.14699C9.91772 3.49366 11.7311 2.66699 14.3844 2.66699H22.9177C27.1711 2.66699 29.3044 4.80033 29.3044 9.05366Z" fill="#D92D20"/>
</svg>
