<svg width="32" height="32" viewBox="0 0 32 32" fill="none" xmlns="http://www.w3.org/2000/svg">
<mask id="path-1-inside-1_5766_131213" fill="white">
<path d="M25.0781 8.33331H26.8915C26.6381 7.97331 26.3715 7.63997 26.0915 7.30664L25.0781 8.33331Z"/>
</mask>
<path d="M25.0781 8.33331H26.8915C26.6381 7.97331 26.3715 7.63997 26.0915 7.30664L25.0781 8.33331Z" fill="#039855"/>
<path d="M25.0781 8.33331L24.3664 7.63084L22.6861 9.33331H25.0781V8.33331ZM26.8915 8.33331V9.33331H28.8179L27.7093 7.75781L26.8915 8.33331ZM26.0915 7.30664L26.8572 6.66345L26.151 5.82277L25.3797 6.60417L26.0915 7.30664ZM25.0781 9.33331H26.8915V7.33331H25.0781V9.33331ZM27.7093 7.75781C27.4332 7.36558 27.1468 7.00822 26.8572 6.66345L25.3258 7.94983C25.5961 8.27173 25.843 8.58103 26.0737 8.9088L27.7093 7.75781ZM25.3797 6.60417L24.3664 7.63084L25.7898 9.03578L26.8032 8.00911L25.3797 6.60417Z" fill="#039855" mask="url(#path-1-inside-1_5766_131213)"/>
<path d="M24.6907 5.89375C24.3574 5.61375 24.0241 5.34708 23.6641 5.09375V6.90708L24.6907 5.89375Z" fill="#039855"/>
<path d="M29.6884 3.0197L26.1248 6.58328C25.8989 6.34252 25.6646 6.10537 25.4204 5.87532L28.9822 2.31348C29.1736 2.12207 29.497 2.12207 29.6884 2.31348C29.8798 2.50488 29.8798 2.8283 29.6884 3.0197Z" fill="#039855" stroke="#039855"/>
<path d="M22.6664 3.5C22.9369 3.5 23.1664 3.72948 23.1664 4V4.17469C22.8776 4.00228 22.5834 3.84094 22.2849 3.68854C22.3751 3.57341 22.5137 3.5 22.6664 3.5Z" fill="#039855" stroke="#039855"/>
<path d="M28.9973 9.33301C28.9973 8.78634 28.544 8.33301 27.9973 8.33301H26.8906C27.3306 8.95967 27.7173 9.62634 28.0373 10.3197C28.5706 10.293 28.9973 9.86634 28.9973 9.33301Z" fill="#039855"/>
<path d="M17 19.6671H17.4C17.92 19.6671 18.3333 19.2004 18.3333 18.6271C18.3333 17.9071 18.1333 17.8004 17.68 17.6404L17 17.4004V19.6671Z" fill="#039855"/>
<path d="M28.0507 10.3203C28.0374 10.3203 28.0241 10.3337 27.9974 10.3337H22.6641C22.5307 10.3337 22.4107 10.307 22.2774 10.2537C22.0374 10.147 21.8374 9.96033 21.7307 9.70699C21.6907 9.58699 21.6641 9.46699 21.6641 9.33366V4.00033C21.6641 3.98699 21.6774 3.97366 21.6774 3.94699C19.9441 3.13366 18.0241 2.66699 15.9974 2.66699C8.6374 2.66699 2.66406 8.64033 2.66406 16.0003C2.66406 23.3603 8.6374 29.3337 15.9974 29.3337C23.3574 29.3337 29.3307 23.3603 29.3307 16.0003C29.3307 13.9737 28.8641 12.0537 28.0507 10.3203ZM18.3307 15.7603C19.1841 16.0537 20.3307 16.6803 20.3307 18.6403C20.3307 20.307 19.0107 21.6803 17.3974 21.6803H16.9974V22.0137C16.9974 22.5603 16.5441 23.0137 15.9974 23.0137C15.4507 23.0137 14.9974 22.5603 14.9974 22.0137V21.6803H14.8907C13.1174 21.6803 11.6641 20.187 11.6641 18.347C11.6641 17.787 12.1174 17.3337 12.6641 17.3337C13.2107 17.3337 13.6641 17.787 13.6641 18.3337C13.6641 19.067 14.2107 19.667 14.8907 19.667H14.9974V16.707L13.6641 16.2403C12.8107 15.947 11.6641 15.3203 11.6641 13.3603C11.6641 11.6937 12.9841 10.3203 14.5974 10.3203H14.9974V10.0003C14.9974 9.45366 15.4507 9.00033 15.9974 9.00033C16.5441 9.00033 16.9974 9.45366 16.9974 10.0003V10.3337H17.1041C18.8774 10.3337 20.3307 11.827 20.3307 13.667C20.3307 14.2137 19.8774 14.667 19.3307 14.667C18.7841 14.667 18.3307 14.2137 18.3307 13.667C18.3307 12.9337 17.7841 12.3337 17.1041 12.3337H16.9974V15.2937L18.3307 15.7603Z" fill="#039855"/>
<path d="M13.6641 13.373C13.6641 14.093 13.8641 14.1997 14.3174 14.3597L14.9974 14.5997V12.333H14.5974C14.0907 12.333 13.6641 12.7997 13.6641 13.373Z" fill="#039855"/>
</svg>
