<svg width="40" height="41" viewBox="0 0 40 41" fill="none" xmlns="http://www.w3.org/2000/svg">
<path d="M20.0225 11.4102C16.7125 11.4102 14.0225 14.1002 14.0225 17.4102V20.3002C14.0225 20.9102 13.7625 21.8402 13.4525 22.3602L12.3025 24.2702C11.5925 25.4502 12.0825 26.7602 13.3825 27.2002C17.6925 28.6402 22.3425 28.6402 26.6525 27.2002C27.8625 26.8002 28.3925 25.3702 27.7325 24.2702L26.5825 22.3602C26.2825 21.8402 26.0225 20.9102 26.0225 20.3002V17.4102C26.0225 14.1102 23.3225 11.4102 20.0225 11.4102Z" stroke="#4E4E4E" stroke-width="1.5" stroke-miterlimit="10" stroke-linecap="round"/>
<path d="M21.8719 11.6999C21.5619 11.6099 21.2419 11.5399 20.9119 11.4999C19.9519 11.3799 19.0319 11.4499 18.1719 11.6999C18.4619 10.9599 19.1819 10.4399 20.0219 10.4399C20.8619 10.4399 21.5819 10.9599 21.8719 11.6999Z" stroke="#4E4E4E" stroke-width="1.5" stroke-miterlimit="10" stroke-linecap="round" stroke-linejoin="round"/>
<path d="M23.0234 27.5601C23.0234 29.2101 21.6734 30.5601 20.0234 30.5601C19.2034 30.5601 18.4434 30.2201 17.9034 29.6801C17.3634 29.1401 17.0234 28.3801 17.0234 27.5601" stroke="#4E4E4E" stroke-width="1.5" stroke-miterlimit="10"/>
<circle cx="25" cy="11.5" r="4" fill="#D92D20"/>
</svg>
