<svg width="64" height="64" viewBox="0 0 64 64" fill="none" xmlns="http://www.w3.org/2000/svg">
<g filter="url(#filter0_d_2859_66340)">
<rect x="12" y="12" width="40" height="40" rx="12" fill="white" shape-rendering="crispEdges"/>
<path d="M38.9116 34.748L38.913 34.7502C39.2233 35.2594 39.2775 35.8584 39.0721 36.4037C38.8637 36.9566 38.4355 37.3737 37.8839 37.555L37.8839 37.555L37.8811 37.5559C35.9942 38.1881 34.0079 38.5 32.0199 38.5C30.032 38.5 28.0466 38.1881 26.161 37.5466L26.16 37.5463C25.5429 37.3378 25.1019 36.9172 24.9207 36.4114L24.9207 36.4114L24.9192 36.4075C24.7272 35.8851 24.7876 35.3026 25.1186 34.7475C25.1188 34.7471 25.119 34.7467 25.1193 34.7463L26.1278 33.0788L26.1278 33.0788L26.1318 33.0719C26.2675 32.8394 26.3815 32.5281 26.4612 32.2349C26.5408 31.9422 26.5999 31.6169 26.5999 31.35V28.82C26.5999 26.699 27.8341 24.8574 29.6226 23.9677L29.761 23.8989L29.8364 23.764C30.2692 22.9898 31.0836 22.5 31.9899 22.5C32.9106 22.5 33.7038 22.9737 34.1347 23.736L34.2122 23.8733L34.3545 23.9412C36.1781 24.8118 37.4399 26.6708 37.4399 28.82V31.35C37.4399 31.6169 37.4991 31.9421 37.5786 32.2356C37.6583 32.5303 37.7717 32.8417 37.9051 33.0768L37.905 33.0769L37.9117 33.088L38.9116 34.748Z" fill="#DC6803" stroke="#DC6803"/>
<path d="M30.0952 40.6143C30.1457 40.6193 30.1963 40.6239 30.2471 40.6282C30.8286 40.6792 31.423 40.71 32.0197 40.71C32.607 40.71 33.1921 40.6791 33.7642 40.628L33.7642 40.628L33.7671 40.6277C33.8101 40.6237 33.8577 40.6197 33.9083 40.6156C33.4471 41.1572 32.7618 41.5 31.9997 41.5C31.3408 41.5 30.6921 41.2319 30.2395 40.7628L30.2308 40.7538L30.2217 40.7452C30.1779 40.7042 30.1357 40.6604 30.0952 40.6143Z" fill="#DC6803" stroke="#DC6803"/>
</g>
<defs>
<filter id="filter0_d_2859_66340" x="0" y="0" width="64" height="64" filterUnits="userSpaceOnUse" color-interpolation-filters="sRGB">
<feFlood flood-opacity="0" result="BackgroundImageFix"/>
<feColorMatrix in="SourceAlpha" type="matrix" values="0 0 0 0 0 0 0 0 0 0 0 0 0 0 0 0 0 0 127 0" result="hardAlpha"/>
<feOffset/>
<feGaussianBlur stdDeviation="6"/>
<feComposite in2="hardAlpha" operator="out"/>
<feColorMatrix type="matrix" values="0 0 0 0 0 0 0 0 0 0 0 0 0 0 0 0 0 0 0.08 0"/>
<feBlend mode="normal" in2="BackgroundImageFix" result="effect1_dropShadow_2859_66340"/>
<feBlend mode="normal" in="SourceGraphic" in2="effect1_dropShadow_2859_66340" result="shape"/>
</filter>
</defs>
</svg>
