<svg width="16" height="17" viewBox="0 0 16 17" fill="none" xmlns="http://www.w3.org/2000/svg">
<path d="M10.9177 2.94786L10.9182 2.9477C12.1912 2.52337 12.9943 2.71659 13.3904 3.11333C13.7872 3.51062 13.98 4.31604 13.5589 5.58915C13.5588 5.58931 13.5588 5.58947 13.5587 5.58964L11.5525 11.6018L11.5523 11.6021C11.2264 12.5817 10.86 13.2771 10.4959 13.7178C10.1304 14.1601 9.8134 14.295 9.57341 14.295C9.33342 14.295 9.01639 14.1601 8.65096 13.7178C8.28685 13.2771 7.92046 12.5817 7.5945 11.6021L7.00126 9.81578L6.92225 9.57786L6.68433 9.49884L4.89796 8.90561C4.8979 8.90559 4.89783 8.90557 4.89777 8.90555C4.89773 8.90553 4.8977 8.90552 4.89766 8.90551C3.91817 8.57953 3.22274 8.21353 2.78206 7.84989C2.3397 7.48488 2.20508 7.1685 2.20508 6.9292C2.20508 6.68974 2.33985 6.37287 2.78244 6.00693C3.22326 5.64246 3.91878 5.27529 4.89823 4.94769C4.89837 4.94764 4.89852 4.9476 4.89866 4.94755L10.9177 2.94786ZM8.79363 8.96025L8.79456 8.95932L11.327 6.41358C11.3271 6.4134 11.3273 6.41321 11.3275 6.41303C11.7156 6.02438 11.7154 5.38822 11.327 4.99981C10.9384 4.61121 10.3018 4.61121 9.91319 4.99981L9.91226 5.00074L7.37986 7.54648C7.37967 7.54666 7.37949 7.54685 7.3793 7.54703C6.99126 7.93568 6.99145 8.57184 7.37986 8.96025C7.57857 9.15896 7.83463 9.25336 8.08674 9.25336C8.33886 9.25336 8.59492 9.15896 8.79363 8.96025Z" fill="#FCF3EB" stroke="#FCF3EB"/>
</svg>
