<svg width="14" height="14" viewBox="0 0 14 14" fill="none" xmlns="http://www.w3.org/2000/svg">
<path d="M10.2246 4.53283C10.1838 4.52699 10.143 4.52699 10.1021 4.53283C9.19797 4.50366 8.48047 3.76283 8.48047 2.85283C8.48047 1.92533 9.23297 1.16699 10.1663 1.16699C11.0938 1.16699 11.8521 1.91949 11.8521 2.85283C11.8463 3.76283 11.1288 4.50366 10.2246 4.53283Z" fill="#202020"/>
<path d="M12.1278 8.57524C11.4744 9.01274 10.5586 9.17607 9.71276 9.06524C9.93443 8.5869 10.0511 8.05607 10.0569 7.49607C10.0569 6.91274 9.92859 6.35857 9.68359 5.8744C10.5469 5.75774 11.4628 5.92107 12.1219 6.35857C13.0436 6.96524 13.0436 7.96274 12.1278 8.57524Z" fill="#202020"/>
<path d="M3.75839 4.53283C3.79922 4.52699 3.84005 4.52699 3.88089 4.53283C4.78505 4.50366 5.50255 3.76283 5.50255 2.85283C5.50255 1.91949 4.75005 1.16699 3.81672 1.16699C2.88922 1.16699 2.13672 1.91949 2.13672 2.85283C2.13672 3.76283 2.85422 4.50366 3.75839 4.53283Z" fill="#202020"/>
<path d="M3.82115 7.49618C3.82115 8.06201 3.94365 8.59868 4.16531 9.08285C3.34281 9.17035 2.48531 8.99535 1.85531 8.58118C0.933646 7.96868 0.933646 6.97118 1.85531 6.35868C2.47948 5.93868 3.36031 5.76951 4.18865 5.86285C3.94948 6.35285 3.82115 6.90701 3.82115 7.49618Z" fill="#202020"/>
<path d="M7.07078 9.2575C7.02411 9.25167 6.97161 9.25167 6.91911 9.2575C5.84578 9.2225 4.98828 8.34167 4.98828 7.25667C4.99411 6.14833 5.88661 5.25 7.00078 5.25C8.10911 5.25 9.00745 6.14833 9.00745 7.25667C9.00161 8.34167 8.14995 9.2225 7.07078 9.2575Z" fill="#202020"/>
<path d="M5.17234 10.465C4.29151 11.0542 4.29151 12.0225 5.17234 12.6059C6.17568 13.2767 7.82068 13.2767 8.82401 12.6059C9.70484 12.0167 9.70484 11.0484 8.82401 10.465C7.82651 9.79421 6.18151 9.79421 5.17234 10.465Z" fill="#202020"/>
</svg>
