<svg width="16" height="16" viewBox="0 0 16 16" fill="none" xmlns="http://www.w3.org/2000/svg">
<path d="M3.33203 4.50065C3.33203 3.03013 4.52817 1.83398 5.9987 1.83398C7.4689 1.83398 8.66484 3.0296 8.66537 4.49969C8.65924 5.9426 7.53541 7.10591 6.10287 7.16065H6.10285H6.10283H6.1028H6.10278H6.10275H6.10273H6.10271H6.10268H6.10266H6.10263H6.10261H6.10258H6.10256H6.10253H6.10251H6.10248H6.10246H6.10243H6.10241H6.10238H6.10236H6.10233H6.10231H6.10228H6.10226H6.10223H6.1022H6.10218H6.10215H6.10213H6.1021H6.10207H6.10205H6.10202H6.10199H6.10197H6.10194H6.10191H6.10189H6.10186H6.10183H6.10181H6.10178H6.10175H6.10172H6.1017H6.10167H6.10164H6.10161H6.10158H6.10156H6.10153H6.1015H6.10147H6.10144H6.10141H6.10139H6.10136H6.10133H6.1013H6.10127H6.10124H6.10121H6.10118H6.10115H6.10112H6.10109H6.10106H6.10103H6.101H6.10097H6.10094H6.10091H6.10088H6.10085H6.10082H6.10079H6.10076H6.10073H6.1007H6.10066H6.10063H6.1006H6.10057H6.10054H6.10051H6.10047H6.10044H6.10041H6.10038H6.10034H6.10031H6.10028H6.10024H6.10021H6.10018H6.10014H6.10011H6.10008H6.10004H6.10001H6.09998H6.09994H6.09991H6.09987H6.09984H6.0998H6.09977H6.09973H6.0997H6.09966H6.09963H6.09959H6.09956H6.09952H6.09949H6.09945H6.09941H6.09938H6.09934H6.0993H6.09927H6.09923H6.09919H6.09916H6.09912H6.09908H6.09904H6.09901H6.09897H6.09893H6.09889H6.09885H6.09881H6.09878H6.09874H6.0987H6.09862H6.09854H6.09846H6.09839H6.09831H6.09823H6.09816H6.09808H6.098H6.09792H6.09785H6.09777H6.0977H6.09762H6.09754H6.09747H6.09739H6.09732H6.09724H6.09717H6.09709H6.09702H6.09694C6.03046 7.15376 5.96392 7.15454 5.90328 7.15964C4.43853 7.09288 3.33203 5.93043 3.33203 4.50065Z" fill="white" stroke="white"/>
<path d="M9.38859 9.43391C7.52859 8.19391 4.49526 8.19391 2.62193 9.43391C1.77526 10.0006 1.30859 10.7672 1.30859 11.5872C1.30859 12.4072 1.77526 13.1672 2.61526 13.7272C3.54859 14.3539 4.77526 14.6672 6.00193 14.6672C7.22859 14.6672 8.45526 14.3539 9.38859 13.7272C10.2286 13.1606 10.6953 12.4006 10.6953 11.5739C10.6886 10.7539 10.2286 9.99391 9.38859 9.43391Z" fill="white"/>
<path d="M13.3263 4.89405C13.4329 6.18738 12.5129 7.32072 11.2396 7.47405C11.2329 7.47405 11.2329 7.47405 11.2263 7.47405H11.2062C11.1662 7.47405 11.1262 7.47405 11.0929 7.48738C10.4462 7.52072 9.85292 7.31405 9.40625 6.93405C10.0929 6.32072 10.4863 5.40072 10.4062 4.40072C10.3596 3.86072 10.1729 3.36738 9.89292 2.94738C10.1463 2.82072 10.4396 2.74072 10.7396 2.71405C12.0463 2.60072 13.2129 3.57405 13.3263 4.89405Z" fill="white"/>
<path d="M14.6615 11.0609C14.6081 11.7076 14.1948 12.2676 13.5015 12.6476C12.8348 13.0142 11.9948 13.1876 11.1615 13.1676C11.6415 12.7342 11.9215 12.1942 11.9748 11.6209C12.0415 10.7942 11.6481 10.0009 10.8615 9.36758C10.4148 9.01425 9.89479 8.73425 9.32812 8.52758C10.8015 8.10092 12.6548 8.38758 13.7948 9.30758C14.4081 9.80092 14.7215 10.4209 14.6615 11.0609Z" fill="white"/>
</svg>
