<svg width="28" height="28" viewBox="0 0 28 28" fill="none" xmlns="http://www.w3.org/2000/svg">
<rect width="28" height="28" rx="8" fill="#DC6803"/>
<path d="M19.8337 11.4993C19.8337 12.7077 19.4753 13.816 18.8587 14.741C17.9587 16.0744 16.5337 17.016 14.8753 17.2577C14.592 17.3077 14.3003 17.3327 14.0003 17.3327C13.7003 17.3327 13.4087 17.3077 13.1253 17.2577C11.467 17.016 10.042 16.0744 9.14199 14.741C8.52533 13.816 8.16699 12.7077 8.16699 11.4993C8.16699 8.27435 10.7753 5.66602 14.0003 5.66602C17.2253 5.66602 19.8337 8.27435 19.8337 11.4993Z" stroke="#FCF3EB" stroke-width="1.5" stroke-linecap="round" stroke-linejoin="round"/>
<path d="M21.7082 19.3917L20.3332 19.7167C20.0249 19.7917 19.7832 20.025 19.7166 20.3333L19.4249 21.5583C19.2666 22.225 18.4166 22.425 17.9749 21.9L13.9999 17.3333L10.0249 21.9083C9.58324 22.4333 8.73324 22.2333 8.5749 21.5667L8.28324 20.3417C8.20824 20.0333 7.96657 19.7917 7.66657 19.725L6.29157 19.4C5.65824 19.25 5.43324 18.4583 5.89157 18L9.14157 14.75C10.0416 16.0833 11.4666 17.025 13.1249 17.2667C13.4082 17.3167 13.6999 17.3417 13.9999 17.3417C14.2999 17.3417 14.5916 17.3167 14.8749 17.2667C16.5332 17.025 17.9582 16.0833 18.8582 14.75L22.1082 18C22.5666 18.45 22.3416 19.2417 21.7082 19.3917Z" stroke="#FCF3EB" stroke-width="1.5" stroke-linecap="round" stroke-linejoin="round"/>
<path d="M14.4836 8.98398L14.9753 9.96731C15.042 10.1006 15.217 10.234 15.3753 10.259L16.267 10.409C16.8336 10.5006 16.967 10.9173 16.5586 11.3256L15.867 12.0173C15.7503 12.134 15.6836 12.359 15.7253 12.5257L15.9253 13.384C16.0836 14.059 15.7253 14.3256 15.1253 13.9673L14.292 13.4756C14.142 13.384 13.892 13.384 13.742 13.4756L12.9086 13.9673C12.3086 14.3173 11.9503 14.059 12.1086 13.384L12.3086 12.5257C12.342 12.3673 12.2836 12.134 12.167 12.0173L11.4753 11.3256C11.067 10.9173 11.2003 10.509 11.767 10.409L12.6586 10.259C12.8086 10.234 12.9836 10.1006 13.0503 9.96731L13.542 8.98398C13.7836 8.45065 14.217 8.45065 14.4836 8.98398Z" stroke="#FCF3EB" stroke-width="1.5" stroke-linecap="round" stroke-linejoin="round"/>
</svg>
