<svg width="121" height="121" viewBox="0 0 121 121" fill="none" xmlns="http://www.w3.org/2000/svg">
<rect width="121" height="121" rx="60.5" fill="#EEF5FF"/>
<path d="M95.404 92.7852H25.5963C24.1652 92.7852 22.9785 93.9719 22.9785 95.4029C22.9785 96.834 24.1652 98.0207 25.5963 98.0207H95.404C96.8351 98.0207 98.0218 96.834 98.0218 95.4029C98.0218 93.9719 96.8351 92.7852 95.404 92.7852Z" fill="#559CFF"/>
<path d="M77.9513 25.5957H43.0475C32.5763 25.5957 29.0859 31.8435 29.0859 39.5572V95.4034H91.9129V39.5572C91.9129 31.8435 88.4225 25.5957 77.9513 25.5957ZM53.5186 78.8241H43.0475C41.6164 78.8241 40.4297 77.6373 40.4297 76.2063C40.4297 74.7752 41.6164 73.5885 43.0475 73.5885H53.5186C54.9497 73.5885 56.1364 74.7752 56.1364 76.2063C56.1364 77.6373 54.9497 78.8241 53.5186 78.8241ZM53.5186 63.1173H43.0475C41.6164 63.1173 40.4297 61.9306 40.4297 60.4995C40.4297 59.0685 41.6164 57.8818 43.0475 57.8818H53.5186C54.9497 57.8818 56.1364 59.0685 56.1364 60.4995C56.1364 61.9306 54.9497 63.1173 53.5186 63.1173ZM53.5186 47.4106H43.0475C41.6164 47.4106 40.4297 46.2239 40.4297 44.7928C40.4297 43.3618 41.6164 42.175 43.0475 42.175H53.5186C54.9497 42.175 56.1364 43.3618 56.1364 44.7928C56.1364 46.2239 54.9497 47.4106 53.5186 47.4106ZM77.9513 78.8241H67.4802C66.0491 78.8241 64.8624 77.6373 64.8624 76.2063C64.8624 74.7752 66.0491 73.5885 67.4802 73.5885H77.9513C79.3824 73.5885 80.5691 74.7752 80.5691 76.2063C80.5691 77.6373 79.3824 78.8241 77.9513 78.8241ZM77.9513 63.1173H67.4802C66.0491 63.1173 64.8624 61.9306 64.8624 60.4995C64.8624 59.0685 66.0491 57.8818 67.4802 57.8818H77.9513C79.3824 57.8818 80.5691 59.0685 80.5691 60.4995C80.5691 61.9306 79.3824 63.1173 77.9513 63.1173ZM77.9513 47.4106H67.4802C66.0491 47.4106 64.8624 46.2239 64.8624 44.7928C64.8624 43.3618 66.0491 42.175 67.4802 42.175H77.9513C79.3824 42.175 80.5691 43.3618 80.5691 44.7928C80.5691 46.2239 79.3824 47.4106 77.9513 47.4106Z" fill="#559CFF"/>
</svg>
