<svg width="32" height="32" viewBox="0 0 32 32" fill="none" xmlns="http://www.w3.org/2000/svg">
<path d="M23.4157 5.47421L23.416 5.47436C24.387 6.02921 24.7211 7.26934 24.1633 8.2455C23.5105 9.38451 23.3913 10.5332 23.9096 11.429C24.4282 12.3251 25.4839 12.7936 26.7974 12.7936C27.9179 12.7936 28.8321 13.7135 28.8441 14.8295V17.1736C28.8441 18.2957 27.923 19.2069 26.8107 19.2069C25.4975 19.2069 24.4411 19.6752 23.9242 20.5723C23.4073 21.4692 23.5314 22.6185 24.1911 23.757C24.7465 24.7183 24.4142 25.9709 23.4427 26.5261L23.4424 26.5263L21.1357 27.8463L21.1357 27.8462L21.1284 27.8505C20.3228 28.3298 19.2671 28.0509 18.7752 27.227L18.6301 26.9764L18.63 26.9762C17.9701 25.8376 17.0344 25.1569 15.9991 25.1569C14.9632 25.1569 14.0307 25.8383 13.3774 26.9775C13.3772 26.9778 13.3771 26.978 13.3769 26.9782L13.2329 27.227C12.7411 28.0508 11.6854 28.3299 10.8797 27.8505L10.8797 27.8505L10.8724 27.8463L8.56574 26.5263L8.56546 26.5261C7.59486 25.9715 7.26064 24.7321 7.81751 23.7562C8.4768 22.6179 8.6007 21.469 8.08394 20.5723C7.56701 19.6752 6.51059 19.2069 5.1974 19.2069C4.07525 19.2069 3.16406 18.2858 3.16406 17.1736V14.8269C3.16406 13.7048 4.08516 12.7936 5.1974 12.7936C6.51051 12.7936 7.56667 12.3253 8.08368 11.4303C8.60079 10.5352 8.47694 9.38924 7.81717 8.25706C7.26016 7.28006 7.59615 6.02826 8.56546 5.47436L8.56574 5.47421L10.8724 4.15421L10.8724 4.15427L10.8797 4.14994C11.6893 3.66828 12.7396 3.95427 13.2029 4.76772L13.2029 4.76772L13.2047 4.77076L13.3514 5.02409L13.3515 5.02431C14.0114 6.16285 14.9471 6.84357 15.9824 6.84357C17.0181 6.84357 17.9506 6.16237 18.6039 5.02334C18.6041 5.02297 18.6043 5.02261 18.6045 5.02224L18.7485 4.77349C19.2404 3.94964 20.2961 3.67063 21.1018 4.14994L21.1017 4.15001L21.1091 4.15421L23.4157 5.47421ZM11.1641 16.0002C11.1641 18.663 13.3346 20.8336 15.9974 20.8336C18.6602 20.8336 20.8307 18.663 20.8307 16.0002C20.8307 13.3374 18.6602 11.1669 15.9974 11.1669C13.3346 11.1669 11.1641 13.3374 11.1641 16.0002Z" fill="#D92D20" stroke="#D92D20"/>
</svg>
