<svg width="24" height="24" viewBox="0 0 24 24" fill="none" xmlns="http://www.w3.org/2000/svg">
<path d="M17.422 4.40945H5.39203L7.27203 2.52945C7.56203 2.23945 7.56203 1.75945 7.27203 1.46945C6.98203 1.17945 6.50203 1.17945 6.21203 1.46945L3.05203 4.62945C2.98203 4.69945 2.93203 4.77945 2.89203 4.86945C2.85203 4.95945 2.83203 5.05945 2.83203 5.15945C2.83203 5.25945 2.85203 5.35945 2.89203 5.44945C2.93203 5.53945 2.98203 5.61945 3.05203 5.68945L6.21203 8.84945C6.36203 8.99945 6.55203 9.06945 6.74203 9.06945C6.93203 9.06945 7.12203 8.99945 7.27203 8.84945C7.56203 8.55945 7.56203 8.07945 7.27203 7.78945L5.39203 5.90945H17.422C18.662 5.90945 19.672 6.91945 19.672 8.15945V11.4795C19.672 11.8895 20.012 12.2295 20.422 12.2295C20.832 12.2295 21.172 11.8895 21.172 11.4795V8.15945C21.172 6.08945 19.492 4.40945 17.422 4.40945Z" fill="white"/>
<path d="M21.172 18.8405C21.172 18.7405 21.152 18.6405 21.112 18.5505C21.072 18.4605 21.022 18.3805 20.952 18.3105L17.792 15.1505C17.502 14.8605 17.022 14.8605 16.732 15.1505C16.442 15.4405 16.442 15.9205 16.732 16.2105L18.612 18.0905H6.58203C5.34203 18.0905 4.33203 17.0805 4.33203 15.8405V12.5205C4.33203 12.1105 3.99203 11.7705 3.58203 11.7705C3.17203 11.7705 2.83203 12.1105 2.83203 12.5205V15.8405C2.83203 17.9105 4.51203 19.5905 6.58203 19.5905H18.612L16.732 21.4705C16.442 21.7605 16.442 22.2405 16.732 22.5305C16.882 22.6805 17.072 22.7505 17.262 22.7505C17.452 22.7505 17.642 22.6805 17.792 22.5305L20.952 19.3705C21.022 19.3005 21.072 19.2205 21.112 19.1305C21.152 19.0405 21.172 18.9405 21.172 18.8405Z" fill="white"/>
</svg>
