<svg width="16" height="16" viewBox="0 0 16 16" fill="none" xmlns="http://www.w3.org/2000/svg">
<path d="M9.10065 13.6133L9.17398 13.74C9.48732 14.2667 10.1673 14.4533 10.694 14.14L11.8473 13.48C12.454 13.1333 12.6607 12.3533 12.314 11.7533M9.10065 13.6133L12.3007 4.24667C11.7007 5.29333 12.194 6.14667 13.4007 6.14667C14.1007 6.14667 14.6673 6.72 14.674 7.41333V8.58667C14.674 9.28666 14.1007 9.85333 13.4073 9.85333C12.2007 9.85333 11.7073 10.7067 12.314 11.7533M9.10065 13.6133C8.49398 12.5667 7.50732 12.5667 6.90732 13.6133M9.10065 13.6133H6.90732M12.314 11.7533L11.8811 12.0035C12.0898 12.3647 11.9642 12.8374 11.5992 13.0459L11.599 13.046L10.4456 13.706L10.4456 13.706L10.4383 13.7103C10.1592 13.8763 9.78341 13.7838 9.60498 13.4865L9.53336 13.3628L9.53324 13.3626C9.17665 12.7474 8.63929 12.3283 8.00148 12.3283C7.36326 12.3283 6.82747 12.7478 6.47414 13.3636C6.47394 13.364 6.47374 13.3643 6.47354 13.3647L6.40295 13.4866C6.2245 13.7839 5.84871 13.8763 5.56963 13.7103L5.56967 13.7102L5.56232 13.706L4.40899 13.046L4.40872 13.0459C4.04476 12.8379 3.91721 12.3718 4.12748 12.0025C4.48344 11.3875 4.57891 10.7137 4.26053 10.1612C3.94193 9.60832 3.31051 9.35333 2.60065 9.35333C2.1785 9.35333 1.83398 9.00557 1.83398 8.58667V7.41333C1.83398 6.99118 2.18175 6.64667 2.60065 6.64667C3.31044 6.64667 3.94159 6.39176 4.26027 5.8401C4.57897 5.28841 4.48361 4.61591 4.12719 4.00365C3.91671 3.6333 4.04601 3.16138 4.40872 2.95412L4.40899 2.95397L5.56232 2.29397L5.56236 2.29403L5.56963 2.2897C5.85257 2.12137 6.22283 2.22069 6.38619 2.50748L6.38618 2.50748L6.38794 2.51052L6.46127 2.63718L6.4614 2.6374C6.81798 3.2526 7.35534 3.67167 7.99315 3.67167C8.63141 3.67167 9.16722 3.25212 9.52055 2.63628C9.52074 2.63596 9.52092 2.63565 9.5211 2.63533L9.59166 2.51345L14.174 7.41605V8.58667C14.174 9.00881 13.8262 9.35333 13.4073 9.35333C12.6975 9.35333 12.066 9.60832 11.7474 10.1612C11.4288 10.7141 11.5247 11.3886 11.8814 12.0041L12.314 11.7533ZM6.90732 13.6133L6.83398 13.74C6.52065 14.2667 5.84065 14.4533 5.31398 14.14L6.90732 13.6133ZM5.33398 8C5.33398 9.46947 6.53118 10.6667 8.00065 10.6667C9.47013 10.6667 10.6673 9.46947 10.6673 8C10.6673 6.53052 9.47013 5.33333 8.00065 5.33333C6.53118 5.33333 5.33398 6.53052 5.33398 8Z" fill="#4E4E4E" stroke="#4E4E4E"/>
</svg>
