<svg width="16" height="17" viewBox="0 0 16 17" fill="none" xmlns="http://www.w3.org/2000/svg">
<path d="M11.3086 4.80273C12.6419 5.7294 13.5619 7.20273 13.7486 8.90273" stroke="white" stroke-width="1.5" stroke-linecap="round" stroke-linejoin="round"/>
<path d="M2.32812 8.93594C2.50146 7.2426 3.40813 5.76927 4.72813 4.83594" stroke="white" stroke-width="1.5" stroke-linecap="round" stroke-linejoin="round"/>
<path d="M5.46094 14.6494C6.23427 15.0427 7.11427 15.2627 8.04094 15.2627C8.93427 15.2627 9.77427 15.0627 10.5276 14.6961" stroke="white" stroke-width="1.5" stroke-linecap="round" stroke-linejoin="round"/>
<path d="M8.04083 5.82288C9.0644 5.82288 9.89417 4.99311 9.89417 3.96954C9.89417 2.94598 9.0644 2.11621 8.04083 2.11621C7.01727 2.11621 6.1875 2.94598 6.1875 3.96954C6.1875 4.99311 7.01727 5.82288 8.04083 5.82288Z" stroke="white" stroke-width="1.5" stroke-linecap="round" stroke-linejoin="round"/>
<path d="M3.22052 13.9694C4.24409 13.9694 5.07385 13.1396 5.07385 12.116C5.07385 11.0925 4.24409 10.2627 3.22052 10.2627C2.19695 10.2627 1.36719 11.0925 1.36719 12.116C1.36719 13.1396 2.19695 13.9694 3.22052 13.9694Z" stroke="white" stroke-width="1.5" stroke-linecap="round" stroke-linejoin="round"/>
<path d="M12.7791 13.9694C13.8027 13.9694 14.6324 13.1396 14.6324 12.116C14.6324 11.0925 13.8027 10.2627 12.7791 10.2627C11.7555 10.2627 10.9258 11.0925 10.9258 12.116C10.9258 13.1396 11.7555 13.9694 12.7791 13.9694Z" stroke="white" stroke-width="1.5" stroke-linecap="round" stroke-linejoin="round"/>
</svg>
