<svg width="23" height="14" viewBox="0 0 23 14" fill="none" xmlns="http://www.w3.org/2000/svg">
<path d="M21.303 13.0006C21.7854 13.0006 22.1764 12.612 22.1764 12.1326C22.1764 11.6532 21.7854 11.2646 21.303 11.2646C20.8207 11.2646 20.4297 11.6532 20.4297 12.1326C20.4297 12.612 20.8207 13.0006 21.303 13.0006Z" stroke="#111111" stroke-linecap="round" stroke-linejoin="round"/>
<path d="M19.3804 12.5313C19.6034 12.5313 19.7842 12.3505 19.7842 12.1275C19.7842 11.9044 19.6034 11.7236 19.3804 11.7236C19.1574 11.7236 18.9766 11.9044 18.9766 12.1275C18.9766 12.3505 19.1574 12.5313 19.3804 12.5313Z" fill="#111111"/>
<path d="M3.98195 12.5313C4.20498 12.5313 4.38578 12.3505 4.38578 12.1275C4.38578 11.9044 4.20498 11.7236 3.98195 11.7236C3.75892 11.7236 3.57812 11.9044 3.57812 12.1275C3.57812 12.3505 3.75892 12.5313 3.98195 12.5313Z" fill="#111111"/>
<path d="M5.90383 12.5313C6.12685 12.5313 6.30765 12.3505 6.30765 12.1275C6.30765 11.9044 6.12685 11.7236 5.90383 11.7236C5.6808 11.7236 5.5 11.9044 5.5 12.1275C5.5 12.3505 5.6808 12.5313 5.90383 12.5313Z" fill="#111111"/>
<path d="M7.8257 12.5313C8.04873 12.5313 8.22953 12.3505 8.22953 12.1275C8.22953 11.9044 8.04873 11.7236 7.8257 11.7236C7.60267 11.7236 7.42188 11.9044 7.42188 12.1275C7.42188 12.3505 7.60267 12.5313 7.8257 12.5313Z" fill="#111111"/>
<path d="M9.75539 12.5313C9.97841 12.5313 10.1592 12.3505 10.1592 12.1275C10.1592 11.9044 9.97841 11.7236 9.75539 11.7236C9.53236 11.7236 9.35156 11.9044 9.35156 12.1275C9.35156 12.3505 9.53236 12.5313 9.75539 12.5313Z" fill="#111111"/>
<path d="M11.6773 12.5313C11.9003 12.5313 12.0811 12.3505 12.0811 12.1275C12.0811 11.9044 11.9003 11.7236 11.6773 11.7236C11.4542 11.7236 11.2734 11.9044 11.2734 12.1275C11.2734 12.3505 11.4542 12.5313 11.6773 12.5313Z" fill="#111111"/>
<path d="M13.607 12.5313C13.83 12.5313 14.0108 12.3505 14.0108 12.1275C14.0108 11.9044 13.83 11.7236 13.607 11.7236C13.3839 11.7236 13.2031 11.9044 13.2031 12.1275C13.2031 12.3505 13.3839 12.5313 13.607 12.5313Z" fill="#111111"/>
<path d="M15.5288 12.5313C15.7519 12.5313 15.9327 12.3505 15.9327 12.1275C15.9327 11.9044 15.7519 11.7236 15.5288 11.7236C15.3058 11.7236 15.125 11.9044 15.125 12.1275C15.125 12.3505 15.3058 12.5313 15.5288 12.5313Z" fill="#111111"/>
<path d="M17.4585 12.5313C17.6815 12.5313 17.8623 12.3505 17.8623 12.1275C17.8623 11.9044 17.6815 11.7236 17.4585 11.7236C17.2355 11.7236 17.0547 11.9044 17.0547 12.1275C17.0547 12.3505 17.2355 12.5313 17.4585 12.5313Z" fill="#111111"/>
<path d="M19.3826 5.37854V9.64455M17.4571 5.37854V9.64455M9.75591 5.37854V9.64455M13.6068 5.37854V9.64455M15.5317 5.37854V9.64455M7.83101 5.37854V9.64455M2.05469 1.1416V9.64455M21.308 1.1416V9.64455M3.98013 5.37854V9.64455M5.90557 5.37854V9.64455M11.6813 3.07243V9.64347" stroke="#111111" stroke-linecap="round" stroke-linejoin="round"/>
<path d="M2.05303 13.0006C2.53536 13.0006 2.92637 12.6096 2.92637 12.1272C2.92637 11.6449 2.53536 11.2539 2.05303 11.2539C1.5707 11.2539 1.17969 11.6449 1.17969 12.1272C1.17969 12.6096 1.5707 13.0006 2.05303 13.0006Z" stroke="#111111" stroke-linecap="round" stroke-linejoin="round"/>
</svg>
