<svg width="121" height="120" viewBox="0 0 121 120" fill="none" xmlns="http://www.w3.org/2000/svg">
<rect x="0.5" width="120" height="120" rx="60" fill="#EEF5FF"/>
<path d="M97.1654 96.6665H23.832C22.3287 96.6665 21.082 95.4198 21.082 93.9165C21.082 92.4132 22.3287 91.1665 23.832 91.1665H97.1654C98.6687 91.1665 99.9154 92.4132 99.9154 93.9165C99.9154 95.4198 98.6687 96.6665 97.1654 96.6665Z" fill="#559CFF"/>
<path d="M52.25 30.6668V96.6668H68.75V30.6668C68.75 26.6335 67.1 23.3335 62.15 23.3335H58.85C53.9 23.3335 52.25 26.6335 52.25 30.6668Z" fill="#559CFF"/>
<path d="M27.5 52.6668V96.6668H42.1667V52.6668C42.1667 48.6335 40.7 45.3335 36.3 45.3335H33.3667C28.9667 45.3335 27.5 48.6335 27.5 52.6668Z" fill="#559CFF"/>
<path d="M78.832 70.9998V96.6665H93.4987V70.9998C93.4987 66.9665 92.032 63.6665 87.632 63.6665H84.6987C80.2987 63.6665 78.832 66.9665 78.832 70.9998Z" fill="#559CFF"/>
</svg>
