<svg width="46" height="46" viewBox="0 0 46 46" fill="none" xmlns="http://www.w3.org/2000/svg">
<rect width="46" height="46" rx="23" fill="#EEF5FF"/>
<rect x="3.63086" y="3.63086" width="38.7368" height="38.7368" rx="19.3684" fill="#0058D5"/>
<path d="M15.2797 29.4691L15.2797 29.4691L15.2817 29.4724C15.5123 29.8513 15.9206 30.0629 16.332 30.0629C16.5241 30.0629 16.7602 30.02 16.9796 29.8783L17.6022 29.5014C18.218 29.1334 18.604 28.453 18.604 27.7327V26.9577C18.604 26.2817 18.0496 25.7274 17.3737 25.7274C16.6926 25.7274 16.1434 26.287 16.1434 26.966V27.5143L15.7055 27.7794C15.109 28.131 14.9377 28.8991 15.2797 29.4691ZM14.4373 27.9993C14.4373 26.492 15.658 25.2713 17.1654 25.2713C18.6728 25.2713 19.8934 26.492 19.8934 27.9993C19.8934 29.5067 18.6728 30.7274 17.1654 30.7274C15.658 30.7274 14.4373 29.5067 14.4373 27.9993Z" fill="#EEF5FF" stroke="#EEF5FF" stroke-width="1.21053"/>
<path d="M27.166 16.334H18.8327C16.3327 16.334 14.666 17.584 14.666 20.5007V23.4673C14.666 23.7757 14.9827 23.9673 15.2577 23.8423C16.0743 23.4673 17.016 23.3257 18.0077 23.5007C20.1993 23.8923 21.8077 25.9257 21.7493 28.1507C21.741 28.5007 21.691 28.8423 21.5993 29.1757C21.5327 29.434 21.741 29.6757 22.0077 29.6757H27.166C29.666 29.6757 31.3327 28.4257 31.3327 25.509V20.5007C31.3327 17.584 29.666 16.334 27.166 16.334ZM22.9993 25.084C21.8493 25.084 20.916 24.1507 20.916 23.0007C20.916 21.8507 21.8493 20.9173 22.9993 20.9173C24.1493 20.9173 25.0827 21.8507 25.0827 23.0007C25.0827 24.1507 24.1493 25.084 22.9993 25.084ZM29.041 24.6673C29.041 25.009 28.7577 25.2923 28.416 25.2923C28.0743 25.2923 27.791 25.009 27.791 24.6673V21.334C27.791 20.9923 28.0743 20.709 28.416 20.709C28.7577 20.709 29.041 20.9923 29.041 21.334V24.6673Z" fill="#EEF5FF"/>
</svg>
