<svg width="25" height="24" viewBox="0 0 25 24" fill="none" xmlns="http://www.w3.org/2000/svg">
<path d="M21.5697 5.23C19.9597 5.07 18.3497 4.95 16.7297 4.86V4.85L16.5097 3.55C16.3597 2.63 16.1397 1.25 13.7997 1.25H11.1797C8.84967 1.25 8.62967 2.57 8.46967 3.54L8.25967 4.82C7.32967 4.88 6.39967 4.94 5.46967 5.03L3.42967 5.23C3.00967 5.27 2.70967 5.64 2.74967 6.05C2.78967 6.46 3.14967 6.76 3.56967 6.72L5.60967 6.52C10.8497 6 16.1297 6.2 21.4297 6.73C21.4597 6.73 21.4797 6.73 21.5097 6.73C21.8897 6.73 22.2197 6.44 22.2597 6.05C22.2897 5.64 21.9897 5.27 21.5697 5.23Z" fill="white"/>
<path d="M19.7298 8.13902C19.4898 7.88902 19.1598 7.74902 18.8198 7.74902H6.17975C5.83975 7.74902 5.49975 7.88902 5.26975 8.13902C5.03975 8.38902 4.90975 8.72902 4.92975 9.07902L5.54975 19.339C5.65975 20.859 5.79975 22.759 9.28975 22.759H15.7098C19.1998 22.759 19.3398 20.869 19.4498 19.339L20.0698 9.08902C20.0898 8.72902 19.9598 8.38902 19.7298 8.13902ZM14.1598 17.749H10.8298C10.4198 17.749 10.0798 17.409 10.0798 16.999C10.0798 16.589 10.4198 16.249 10.8298 16.249H14.1598C14.5698 16.249 14.9098 16.589 14.9098 16.999C14.9098 17.409 14.5698 17.749 14.1598 17.749ZM14.9998 13.749H9.99975C9.58975 13.749 9.24975 13.409 9.24975 12.999C9.24975 12.589 9.58975 12.249 9.99975 12.249H14.9998C15.4098 12.249 15.7498 12.589 15.7498 12.999C15.7498 13.409 15.4098 13.749 14.9998 13.749Z" fill="white"/>
</svg>
