<svg width="17" height="17" viewBox="0 0 17 17" fill="none" xmlns="http://www.w3.org/2000/svg">
<path d="M14.5 4.48665C12.28 4.26665 10.0467 4.15332 7.82 4.15332C6.5 4.15332 5.18 4.21999 3.86 4.35332L2.5 4.48665" stroke="#4E4E4E" stroke-width="1.5" stroke-linecap="round" stroke-linejoin="round"/>
<path d="M6.16602 3.8135L6.31268 2.94016C6.41935 2.30683 6.49935 1.8335 7.62602 1.8335H9.37268C10.4993 1.8335 10.586 2.3335 10.686 2.94683L10.8327 3.8135" stroke="#292D32" stroke-width="1.5" stroke-linecap="round" stroke-linejoin="round"/>
<path d="M13.0669 6.59326L12.6336 13.3066C12.5603 14.3533 12.5003 15.1666 10.6403 15.1666H6.36026C4.50026 15.1666 4.44026 14.3533 4.36693 13.3066L3.93359 6.59326" stroke="#292D32" stroke-width="1.5" stroke-linecap="round" stroke-linejoin="round"/>
<path d="M7.38672 11.5H9.60672" stroke="#292D32" stroke-width="1.5" stroke-linecap="round" stroke-linejoin="round"/>
<path d="M6.83398 8.8335H10.1673" stroke="#292D32" stroke-width="1.5" stroke-linecap="round" stroke-linejoin="round"/>
</svg>
