<svg width="40" height="40" viewBox="0 0 40 40" fill="none" xmlns="http://www.w3.org/2000/svg">
<path d="M36.6997 28.0338L31.4831 15.8338C30.5331 13.6004 29.1164 12.3338 27.4997 12.2504C25.8997 12.1671 24.3497 13.2838 23.1664 15.4171L19.9997 21.1004C19.3331 22.3004 18.3831 23.0171 17.3497 23.1004C16.2997 23.2004 15.2497 22.6504 14.3997 21.5671L14.0331 21.1004C12.8497 19.6171 11.3831 18.9004 9.88307 19.0504C8.38307 19.2004 7.09974 20.2338 6.24974 21.9171L3.36641 27.6671C2.33307 29.7504 2.43307 32.1671 3.64974 34.1338C4.86641 36.1004 6.98307 37.2838 9.29974 37.2838H30.5664C32.7997 37.2838 34.8831 36.1671 36.1164 34.3004C37.3831 32.4338 37.5831 30.0838 36.6997 28.0338Z" fill="#4E4E4E"/>
<path d="M11.6167 13.9669C14.7279 13.9669 17.2501 11.4447 17.2501 8.33353C17.2501 5.22232 14.7279 2.7002 11.6167 2.7002C8.50553 2.7002 5.9834 5.22232 5.9834 8.33353C5.9834 11.4447 8.50553 13.9669 11.6167 13.9669Z" fill="#4E4E4E"/>
</svg>
