<svg width="32" height="32" viewBox="0 0 32 32" fill="none" xmlns="http://www.w3.org/2000/svg">
<path d="M12.5453 5.46386L12.5454 5.46396L12.5539 5.45649L14.6438 3.63282C15.3924 3.0047 16.6223 3.00841 17.353 3.63255C17.3532 3.63274 17.3534 3.63292 17.3536 3.6331L19.4577 5.44426C19.458 5.4445 19.4583 5.44473 19.4586 5.44496C19.7177 5.66933 20.0657 5.85199 20.406 5.97844C20.7466 6.105 21.1275 6.19309 21.4652 6.19309H23.7319C24.8691 6.19309 25.8052 7.12923 25.8052 8.26642V10.5331C25.8052 10.8768 25.893 11.2576 26.0202 11.5981C26.1472 11.9381 26.33 12.2818 26.5533 12.5397C26.5535 12.54 26.5538 12.5403 26.554 12.5406L28.3652 14.6447C28.3654 14.6449 28.3656 14.6452 28.3658 14.6454C28.9915 15.3779 28.9924 16.6221 28.3775 17.3559L26.5674 19.459C26.5672 19.4591 26.5671 19.4593 26.5669 19.4595C26.3424 19.7187 26.1597 20.0668 26.0332 20.4073C25.9066 20.7479 25.8185 21.1287 25.8185 21.4664V23.7331C25.8185 24.8703 24.8824 25.8064 23.7452 25.8064H21.4785C21.1348 25.8064 20.754 25.8942 20.4135 26.0214C20.0733 26.1485 19.7295 26.3314 19.4716 26.5548C19.4714 26.555 19.4712 26.5551 19.4711 26.5552L17.3696 28.3641C17.369 28.3646 17.3684 28.3651 17.3678 28.3656C16.6194 28.9948 15.3886 28.9914 14.6575 28.367C14.6573 28.3668 14.657 28.3666 14.6568 28.3664L12.5527 26.5552C12.5524 26.555 12.5521 26.5547 12.5518 26.5545C12.2927 26.3302 11.9446 26.1475 11.6044 26.0211C11.2638 25.8945 10.8829 25.8064 10.5452 25.8064H8.23854C7.10135 25.8064 6.16521 24.8703 6.16521 23.7331V21.4531C6.16521 21.1151 6.07695 20.7375 5.95245 20.4012C5.82769 20.0641 5.64954 19.7226 5.43599 19.4663L5.436 19.4663L5.43302 19.4628L3.63462 17.3447C3.63437 17.3444 3.63412 17.3441 3.63388 17.3438C3.01787 16.61 3.01787 15.3895 3.63388 14.6557C3.63412 14.6554 3.63437 14.6551 3.63462 14.6548L5.43302 12.5367L5.43304 12.5367L5.43599 12.5332C5.64954 12.2769 5.82769 11.9354 5.95245 11.5983C6.07695 11.262 6.16521 10.8844 6.16521 10.5464V8.26642C6.16521 7.12923 7.10135 6.19309 8.23854 6.19309H10.5452C10.8827 6.19309 11.263 6.10508 11.6021 5.98094C11.9416 5.85666 12.2876 5.67858 12.5453 5.46386ZM15.4588 20.2733L21.8988 13.8333C22.4807 13.2514 22.4807 12.2948 21.8988 11.7129C21.3168 11.1309 20.3603 11.1309 19.7783 11.7129L14.3985 17.0926L12.2321 14.9262C11.6502 14.3443 10.6936 14.3443 10.1117 14.9262C9.52973 15.5081 9.52973 16.4647 10.1117 17.0466L13.3383 20.2733C13.6177 20.5527 13.9978 20.7131 14.3985 20.7131C14.7993 20.7131 15.1794 20.5527 15.4588 20.2733Z" fill="#DC6803" stroke="#DC6803"/>
</svg>
