<svg width="4" height="16" viewBox="0 0 4 16" fill="none" xmlns="http://www.w3.org/2000/svg">
<path d="M2.00033 8.83398C2.46056 8.83398 2.83366 8.46089 2.83366 8.00065C2.83366 7.54041 2.46056 7.16732 2.00033 7.16732C1.54009 7.16732 1.16699 7.54041 1.16699 8.00065C1.16699 8.46089 1.54009 8.83398 2.00033 8.83398Z" stroke="#4E4E4E" stroke-width="1.66667" stroke-linecap="round" stroke-linejoin="round"/>
<path d="M2.00033 3.00065C2.46056 3.00065 2.83366 2.62755 2.83366 2.16732C2.83366 1.70708 2.46056 1.33398 2.00033 1.33398C1.54009 1.33398 1.16699 1.70708 1.16699 2.16732C1.16699 2.62755 1.54009 3.00065 2.00033 3.00065Z" stroke="#4E4E4E" stroke-width="1.66667" stroke-linecap="round" stroke-linejoin="round"/>
<path d="M2.00033 14.6673C2.46056 14.6673 2.83366 14.2942 2.83366 13.834C2.83366 13.3737 2.46056 13.0007 2.00033 13.0007C1.54009 13.0007 1.16699 13.3737 1.16699 13.834C1.16699 14.2942 1.54009 14.6673 2.00033 14.6673Z" stroke="#4E4E4E" stroke-width="1.66667" stroke-linecap="round" stroke-linejoin="round"/>
</svg>
