<svg width="120" height="120" viewBox="0 0 120 120" fill="none" xmlns="http://www.w3.org/2000/svg">
<rect width="120" height="120" rx="60" fill="#EEF5FF"/>
<path d="M80.2758 44.4897C80.0192 44.453 79.7625 44.453 79.5058 44.4897C73.8225 44.3063 69.3125 39.6497 69.3125 33.9297C69.3125 28.0997 74.0425 23.333 79.9092 23.333C85.7392 23.333 90.5058 28.063 90.5058 33.9297C90.4692 39.6497 85.9592 44.3063 80.2758 44.4897Z" fill="#559CFF"/>
<path d="M92.2305 69.8995C88.1239 72.6495 82.3672 73.6762 77.0505 72.9795C78.4439 69.9729 79.1772 66.6362 79.2139 63.1162C79.2139 59.4495 78.4072 55.9662 76.8672 52.9229C82.2939 52.1895 88.0505 53.2162 92.1939 55.9662C97.9872 59.7795 97.9872 66.0495 92.2305 69.8995Z" fill="#559CFF"/>
<path d="M39.6152 44.4897C39.8719 44.453 40.1285 44.453 40.3852 44.4897C46.0685 44.3063 50.5785 39.6497 50.5785 33.9297C50.5785 28.063 45.8485 23.333 39.9819 23.333C34.1519 23.333 29.4219 28.063 29.4219 33.9297C29.4219 39.6497 33.9319 44.3063 39.6152 44.4897Z" fill="#559CFF"/>
<path d="M40.0181 63.1169C40.0181 66.6736 40.7881 70.0469 42.1814 73.0902C37.0114 73.6402 31.6214 72.5402 27.6614 69.9369C21.8681 66.0869 21.8681 59.8169 27.6614 55.9669C31.5847 53.3269 37.1214 52.2636 42.3281 52.8502C40.8247 55.9302 40.0181 59.4136 40.0181 63.1169Z" fill="#559CFF"/>
<path d="M60.4416 74.19C60.1482 74.1533 59.8182 74.1533 59.4882 74.19C52.7416 73.97 47.3516 68.4333 47.3516 61.6133C47.3882 54.6467 52.9982 49 60.0016 49C66.9682 49 72.6149 54.6467 72.6149 61.6133C72.5782 68.4333 67.2249 73.97 60.4416 74.19Z" fill="#559CFF"/>
<path d="M48.5236 81.7797C42.9869 85.483 42.9869 91.5697 48.5236 95.2364C54.8303 99.453 65.1703 99.453 71.4769 95.2364C77.0136 91.533 77.0136 85.4464 71.4769 81.7797C65.2069 77.563 54.8669 77.563 48.5236 81.7797Z" fill="#559CFF"/>
</svg>
