<svg width="32" height="32" viewBox="0 0 32 32" fill="none" xmlns="http://www.w3.org/2000/svg">
<path d="M2.53899 27.8244L2.53905 27.8244L2.53486 27.8176C2.08962 27.0955 1.83594 26.2396 1.83594 25.3333C1.83594 22.6628 3.99875 20.5 6.66927 20.5C9.3398 20.5 11.5026 22.6628 11.5026 25.3333C11.5026 26.2396 11.2489 27.0955 10.8037 27.8176L10.8036 27.8175L10.7995 27.8244C9.96634 29.2251 8.43319 30.1667 6.66927 30.1667C4.90535 30.1667 3.3722 29.2251 2.53899 27.8244ZM9.63544 25.2604L9.6371 25.2589C10.2359 24.7 10.2794 23.7438 9.7148 23.1388L9.34927 23.48L9.7148 23.1388C9.15622 22.5404 8.2007 22.4966 7.5957 23.0603C7.59539 23.0606 7.59509 23.0609 7.59478 23.0611L5.81611 24.7064L5.51616 24.4064C4.93423 23.8245 3.97765 23.8245 3.39572 24.4064C2.81379 24.9884 2.81379 25.945 3.39572 26.5269L4.71572 27.8469C5.01443 28.1456 5.39715 28.2867 5.77594 28.2867C6.13767 28.2867 6.51364 28.1486 6.79592 27.8866C6.796 27.8865 6.79608 27.8865 6.79616 27.8864L9.63544 25.2604Z" fill="#039855" stroke="#039855"/>
<path d="M28.6641 16.667H25.3307C23.8641 16.667 22.6641 17.867 22.6641 19.3337C22.6641 20.8003 23.8641 22.0003 25.3307 22.0003H28.6641C29.0374 22.0003 29.3307 21.707 29.3307 21.3337V17.3337C29.3307 16.9603 29.0374 16.667 28.6641 16.667Z" fill="#039855"/>
<path d="M21.688 7.55344L21.688 7.55349L21.6941 7.55938C21.711 7.57571 21.716 7.58606 21.7173 7.5897C21.7173 7.59113 21.7169 7.59687 21.7115 7.60719C21.6959 7.63709 21.6455 7.68649 21.5484 7.68655C21.5484 7.68655 21.5483 7.68655 21.5482 7.68655L10.5088 7.67322H10.5082C10.315 7.67322 10.2159 7.43938 10.3551 7.3001L10.3561 7.29909L12.6883 4.95356C14.4663 3.18879 17.3363 3.18866 19.1144 4.95315L21.6328 7.49824L21.6347 7.5001L21.6614 7.52678L21.688 7.55344Z" fill="#039855" stroke="#039855"/>
<path d="M28.6819 24.7305L28.6819 24.7305L28.6797 24.7377C27.9353 27.2519 25.7995 28.833 22.7992 28.833H14.1325C14.0701 28.833 14.0097 28.8017 13.9666 28.7296C13.9219 28.655 13.9138 28.5628 13.9494 28.4827L13.9494 28.4828L13.9521 28.4766C14.373 27.4945 14.6458 26.3739 14.6458 25.333C14.6458 21.0169 11.1286 17.4997 6.8125 17.4997C5.72945 17.4997 4.67487 17.7276 3.70612 18.1546C3.61661 18.1928 3.51067 18.1837 3.42589 18.1343C3.34439 18.0868 3.3125 18.0227 3.3125 17.9597V15.9997C3.3125 14.2883 3.82715 12.8681 4.71136 11.8307C5.59456 10.7945 6.87321 10.1084 8.46142 9.90912L8.46981 9.90806L8.47816 9.90673C8.78236 9.85806 9.11572 9.83301 9.46583 9.83301H22.7992C23.1355 9.83301 23.437 9.84622 23.717 9.89287L23.7297 9.895L23.7426 9.89646C26.2435 10.1812 28.0185 11.6873 28.6796 13.9279L28.6807 13.9313C28.7198 14.0604 28.6264 14.1663 28.5192 14.1663H25.4658C22.2654 14.1663 19.7239 17.0876 20.416 20.4067C20.9083 22.8487 23.1591 24.4997 25.5992 24.4997H28.5192C28.63 24.4997 28.7202 24.608 28.6819 24.7305Z" fill="#039855" stroke="#039855"/>
</svg>
