<svg width="16" height="17" viewBox="0 0 16 17" fill="none" xmlns="http://www.w3.org/2000/svg">
<path d="M14.1531 8.3254L14.1531 8.32535C13.9434 4.74836 10.6941 1.99219 6.94699 2.60942L14.1531 8.3254ZM14.1531 8.3254C14.3562 11.785 11.4645 14.8561 7.99222 14.8561C6.85007 14.8561 5.78395 14.5476 4.87227 14.0117L4.68983 13.9045L4.48583 13.9608L2.31249 14.5608L2.31249 14.5608L2.30905 14.5617C2.19255 14.5948 2.07458 14.4872 2.10858 14.3586C2.10861 14.3585 2.10865 14.3584 2.10868 14.3582L2.70176 12.1526L2.75557 11.9525L2.65204 11.773C1.98019 10.608 1.67125 9.19639 1.90617 7.70031L1.90629 7.69957M14.1531 8.3254L1.90629 7.69957M1.90629 7.69957C2.3065 5.12591 4.3737 3.03427 6.94683 2.60944L1.90629 7.69957ZM11.6994 11.393L11.7045 11.3829L11.7091 11.3725C11.749 11.2829 11.7762 11.1968 11.796 11.1312C11.8027 11.1089 11.8083 11.0899 11.8133 11.0731C11.8251 11.033 11.8333 11.0054 11.8437 10.9758L11.8722 10.8951V10.8094C11.8722 10.6366 11.8333 10.4942 11.7856 10.3699L11.7769 10.3474L11.7661 10.3258C11.6902 10.1741 11.5763 10.0361 11.4198 9.92701L10.3199 9.1452C10.1992 9.05563 10.0835 8.99924 9.99913 8.9609C9.86258 8.89883 9.72551 8.86941 9.58557 8.86941C9.38519 8.86941 9.22625 8.93439 9.09982 9.00728C8.97887 9.07418 8.86337 9.16449 8.75199 9.27587L8.75196 9.2759L8.65663 9.37125C8.59952 9.33111 8.53232 9.27961 8.45571 9.21481C8.28648 9.07061 8.12314 8.91987 7.95247 8.7492C7.79265 8.58937 7.64312 8.42158 7.49042 8.24898C7.42241 8.16848 7.37003 8.10303 7.33032 8.04999L7.42397 7.95141C7.53198 7.8426 7.6168 7.7301 7.68412 7.61469C7.76094 7.48301 7.82556 7.31612 7.82556 7.12275C7.82556 6.98866 7.79855 6.85722 7.74169 6.72634C7.69041 6.59397 7.61357 6.48037 7.55664 6.39814L7.55666 6.39813L7.55375 6.39401L6.78166 5.30242C6.6629 5.13191 6.50811 5.01941 6.35507 4.94878L6.14554 5.40276L6.35507 4.94878C6.20186 4.87806 6.03696 4.84276 5.87223 4.84276C5.47732 4.84276 5.1239 5.00698 4.83228 5.29565C4.60361 5.50916 4.43478 5.75562 4.32696 6.03298C4.22214 6.29607 4.17224 6.57875 4.17224 6.86276C4.17224 7.28683 4.27008 7.71945 4.45141 8.15011C4.62857 8.57088 4.86867 8.98352 5.15964 9.38804L5.15962 9.38806L5.16302 9.39267C5.45537 9.78944 5.77818 10.1758 6.14534 10.543L6.14533 10.543L6.14879 10.5464C6.50928 10.8999 6.88821 11.2303 7.29898 11.5277L7.30027 11.5286C7.70481 11.8196 8.1156 12.0584 8.53947 12.2413C8.973 12.4312 9.40739 12.5294 9.82556 12.5294C10.1138 12.5294 10.4008 12.4803 10.6712 12.3643C10.9522 12.2506 11.1892 12.0686 11.3924 11.8491L11.3926 11.8493L11.4018 11.8387C11.5261 11.6967 11.6224 11.547 11.6994 11.393Z" fill="#039855" stroke="#039855"/>
</svg>
