<svg width="16" height="16" viewBox="0 0 16 16" fill="none" xmlns="http://www.w3.org/2000/svg">
<mask id="path-1-inside-1_4856_36139" fill="white">
<path d="M14.6654 14.6665H1.33203C1.0587 14.6665 0.832031 14.4398 0.832031 14.1665C0.832031 13.8932 1.0587 13.6665 1.33203 13.6665H14.6654C14.9387 13.6665 15.1654 13.8932 15.1654 14.1665C15.1654 14.4398 14.9387 14.6665 14.6654 14.6665Z"/>
</mask>
<path d="M14.6654 14.6665H1.33203C1.0587 14.6665 0.832031 14.4398 0.832031 14.1665C0.832031 13.8932 1.0587 13.6665 1.33203 13.6665H14.6654C14.9387 13.6665 15.1654 13.8932 15.1654 14.1665C15.1654 14.4398 14.9387 14.6665 14.6654 14.6665Z" fill="white"/>
<path d="M14.6654 13.6665H1.33203V15.6665H14.6654V13.6665ZM1.33203 13.6665C1.61098 13.6665 1.83203 13.8876 1.83203 14.1665H-0.167969C-0.167969 14.9921 0.506413 15.6665 1.33203 15.6665V13.6665ZM1.83203 14.1665C1.83203 14.4455 1.61098 14.6665 1.33203 14.6665V12.6665C0.506413 12.6665 -0.167969 13.3409 -0.167969 14.1665H1.83203ZM1.33203 14.6665H14.6654V12.6665H1.33203V14.6665ZM14.6654 14.6665C14.3864 14.6665 14.1654 14.4455 14.1654 14.1665H16.1654C16.1654 13.3409 15.491 12.6665 14.6654 12.6665V14.6665ZM14.1654 14.1665C14.1654 13.8876 14.3864 13.6665 14.6654 13.6665V15.6665C15.491 15.6665 16.1654 14.9921 16.1654 14.1665H14.1654Z" fill="white" mask="url(#path-1-inside-1_4856_36139)"/>
<path d="M6.5 2.66683V14.6668H9.5V2.66683C9.5 1.9335 9.2 1.3335 8.3 1.3335H7.7C6.8 1.3335 6.5 1.9335 6.5 2.66683Z" fill="white"/>
<path d="M2 6.66683V14.6668H4.66667V6.66683C4.66667 5.9335 4.4 5.3335 3.6 5.3335H3.06667C2.26667 5.3335 2 5.9335 2 6.66683Z" fill="white"/>
<path d="M11.332 9.99984V14.6665H13.9987V9.99984C13.9987 9.2665 13.732 8.6665 12.932 8.6665H12.3987C11.5987 8.6665 11.332 9.2665 11.332 9.99984Z" fill="white"/>
</svg>
