<svg width="10" height="10" viewBox="0 0 10 10" fill="none" xmlns="http://www.w3.org/2000/svg">
<path d="M8.05126 7.37309L8.05126 7.37308L8.0481 7.37385C7.72339 7.45283 7.44911 7.70461 7.37057 8.05627L7.2625 8.51017L6.41322 7.53308C6.97623 7.3244 7.48739 6.99197 7.90798 6.55849L8.59424 7.24475L8.05126 7.37309Z" fill="#EEF5FF" stroke="#EEF5FF"/>
<path d="M1.12531 7.69718L1.81281 7.85968C1.96698 7.89718 2.08781 8.01385 2.12115 8.16801L2.26698 8.78051C2.34615 9.11385 2.77115 9.21801 2.99198 8.95551L4.23781 7.52218C4.33781 7.40551 4.28365 7.22218 4.13365 7.18468C3.39615 7.00551 2.73365 6.59301 2.24615 6.00551C2.16698 5.90968 2.02531 5.89718 1.93781 5.98468L1.01281 6.90968C0.696145 7.22635 0.808645 7.62218 1.12531 7.69718Z" fill="#EEF5FF"/>
<path d="M4.99967 0.832031C3.38717 0.832031 2.08301 2.1362 2.08301 3.7487C2.08301 4.35286 2.26217 4.90703 2.57051 5.36953C3.02051 6.0362 3.73301 6.50703 4.56217 6.62786C4.70384 6.65286 4.84967 6.66536 4.99967 6.66536C5.14967 6.66536 5.29551 6.65286 5.43717 6.62786C6.26634 6.50703 6.97884 6.0362 7.42884 5.36953C7.73717 4.90703 7.91634 4.35286 7.91634 3.7487C7.91634 2.1362 6.61217 0.832031 4.99967 0.832031ZM6.27467 3.65703L5.92884 4.00286C5.87051 4.0612 5.83717 4.1737 5.85801 4.25703L5.95801 4.6862C6.03717 5.0237 5.85801 5.15703 5.55801 4.97786L5.14134 4.73203C5.06634 4.6862 4.94134 4.6862 4.86634 4.73203L4.44967 4.97786C4.14967 5.15286 3.97051 5.0237 4.04967 4.6862L4.14967 4.25703C4.16634 4.17786 4.13717 4.0612 4.07884 4.00286L3.72467 3.65703C3.52051 3.45286 3.58717 3.2487 3.87051 3.20286L4.31634 3.12786C4.39134 3.11536 4.47884 3.0487 4.51217 2.98203L4.75801 2.49036C4.89134 2.2237 5.10801 2.2237 5.24134 2.49036L5.48717 2.98203C5.52051 3.0487 5.60801 3.11536 5.68717 3.12786L6.13301 3.20286C6.41217 3.2487 6.47884 3.45286 6.27467 3.65703Z" fill="#EEF5FF"/>
</svg>
