<svg width="32" height="32" viewBox="0 0 32 32" fill="none" xmlns="http://www.w3.org/2000/svg">
<path d="M28.8193 10.4113V10.4127V21.586C28.8193 23.9132 28.1276 25.7107 26.9125 26.9258C25.6973 28.1409 23.8999 28.8327 21.5727 28.8327H10.4127C8.08546 28.8327 6.28819 28.1409 5.07312 26.9244C3.85799 25.7077 3.16602 23.9069 3.16602 21.5727V10.4127C3.16602 8.08545 3.85778 6.28803 5.0729 5.0729C6.28803 3.85778 8.08545 3.16602 10.4127 3.16602H21.586C23.9133 3.16602 25.7106 3.85782 26.9239 5.07268C28.1371 6.28744 28.8257 8.08439 28.8193 10.4113ZM20.8329 20.8329C21.4148 20.251 21.4148 19.2944 20.8329 18.7125L18.1198 15.9993L20.8329 13.2862C21.4148 12.7043 21.4148 11.7477 20.8329 11.1658C20.251 10.5839 19.2944 10.5839 18.7125 11.1658L15.9993 13.8789L13.2862 11.1658C12.7043 10.5839 11.7477 10.5839 11.1658 11.1658C10.5839 11.7477 10.5839 12.7043 11.1658 13.2862L13.8789 15.9993L11.1658 18.7125C10.5839 19.2944 10.5839 20.251 11.1658 20.8329C11.4645 21.1316 11.8472 21.2727 12.226 21.2727C12.6048 21.2727 12.9875 21.1316 13.2862 20.8329L15.9993 18.1198L18.7125 20.8329C19.0112 21.1316 19.3939 21.2727 19.7727 21.2727C20.1515 21.2727 20.5342 21.1316 20.8329 20.8329Z" fill="#A9A9A9" stroke="#A9A9A9"/>
</svg>
