<svg width="20" height="20" viewBox="0 0 20 20" fill="none" xmlns="http://www.w3.org/2000/svg">
<path d="M9.99935 10.834C10.4596 10.834 10.8327 10.4609 10.8327 10.0007C10.8327 9.54041 10.4596 9.16732 9.99935 9.16732C9.53911 9.16732 9.16602 9.54041 9.16602 10.0007C9.16602 10.4609 9.53911 10.834 9.99935 10.834Z" stroke="#A9A9A9" stroke-width="1.66667" stroke-linecap="round" stroke-linejoin="round"/>
<path d="M9.99935 5.00065C10.4596 5.00065 10.8327 4.62755 10.8327 4.16732C10.8327 3.70708 10.4596 3.33398 9.99935 3.33398C9.53911 3.33398 9.16602 3.70708 9.16602 4.16732C9.16602 4.62755 9.53911 5.00065 9.99935 5.00065Z" stroke="#A9A9A9" stroke-width="1.66667" stroke-linecap="round" stroke-linejoin="round"/>
<path d="M9.99935 16.6673C10.4596 16.6673 10.8327 16.2942 10.8327 15.834C10.8327 15.3737 10.4596 15.0007 9.99935 15.0007C9.53911 15.0007 9.16602 15.3737 9.16602 15.834C9.16602 16.2942 9.53911 16.6673 9.99935 16.6673Z" stroke="#A9A9A9" stroke-width="1.66667" stroke-linecap="round" stroke-linejoin="round"/>
</svg>
